<?xml version="1.0" encoding="UTF-8"?>
<svg width="1480px" height="166px" viewBox="0 0 1480 166" version="1.1" xmlns="http://www.w3.org/2000/svg" xmlns:xlink="http://www.w3.org/1999/xlink">
    <defs>
        <linearGradient x1="49.9962414%" y1="18.2691088%" x2="49.9962414%" y2="109.390215%" id="linearGradient-1">
            <stop stop-color="#F2C069" offset="0%"></stop>
            <stop stop-color="#EB8F3B" offset="100%"></stop>
        </linearGradient>
    </defs>
    <g id="Normal-Registered" stroke="none" stroke-width="1" fill="none" fill-rule="evenodd">
        <path d="M1346.97,14.397 C1346.97,6.603 1353.35,0.227 1361.14,0.227 L1465.83,0.227 C1473.62,0.227 1480,6.603 1480,14.397 L1480,65.814 C1480,73.608 1473.62,79.984 1465.83,79.984 L1454.99,79.984 C1447.2,79.984 1435.25,83.078 1428.44,86.861 L1390.41,107.989 C1383.6,111.772 1380.68,109.07 1383.92,101.984 L1388.3,92.413 C1391.54,85.321 1387.82,79.525 1380.03,79.525 L1361.14,79.525 C1353.35,79.525 1346.97,73.151 1346.97,65.358 L1346.97,14.397" id="Fill-1" fill="url(#linearGradient-1)"></path>
        <path d="M1347.1,148.138 C1347.93,148.137 1348.63,148.005 1349.17,147.745 C1349.72,147.485 1350,146.895 1350,145.97 C1349.99,145.48 1349.89,145.095 1349.69,144.822 C1349.49,144.547 1349.22,144.339 1348.89,144.197 C1348.56,144.051 1348.19,143.956 1347.81,143.916 C1347.41,143.873 1347.05,143.851 1346.7,143.851 L1344.19,143.854 L1344.19,148.141 L1347.1,148.138 Z M1347.13,140.819 C1349.38,140.816 1351.06,141.28 1352.16,142.2 C1353.26,143.125 1353.81,144.452 1353.81,146.182 C1353.81,147.656 1353.4,148.787 1352.57,149.581 C1351.75,150.38 1350.73,150.849 1349.52,150.993 L1353.82,158.133 L1349.66,158.136 L1345.58,151.168 L1344.19,151.17 L1344.2,158.142 L1340.39,158.145 L1340.38,140.825 L1347.13,140.819 Z M1336.3,153.928 C1336.86,155.328 1337.64,156.546 1338.64,157.587 C1339.64,158.625 1340.82,159.447 1342.19,160.05 C1343.56,160.656 1345.06,160.958 1346.67,160.956 C1348.29,160.954 1349.79,160.65 1351.15,160.041 C1352.52,159.436 1353.71,158.612 1354.7,157.572 C1355.7,156.529 1356.48,155.31 1357.04,153.908 C1357.6,152.51 1357.88,151.029 1357.88,149.47 C1357.88,147.912 1357.59,146.431 1357.03,145.031 C1356.47,143.634 1355.68,142.413 1354.69,141.375 C1353.69,140.337 1352.51,139.515 1351.13,138.909 C1349.77,138.306 1348.27,138.004 1346.65,138.006 C1345.03,138.008 1343.54,138.312 1342.17,138.917 C1340.8,139.526 1339.62,140.35 1338.62,141.39 C1337.63,142.429 1336.85,143.652 1336.29,145.05 C1335.73,146.451 1335.45,147.933 1335.45,149.491 C1335.45,151.05 1335.73,152.531 1336.3,153.928 Z M1331.85,143.236 C1332.68,141.285 1333.83,139.584 1335.29,138.123 C1336.74,136.665 1338.44,135.515 1340.39,134.676 C1342.34,133.836 1344.42,133.417 1346.65,133.415 C1348.87,133.413 1350.96,133.828 1352.91,134.664 C1354.86,135.5 1356.56,136.647 1358.02,138.101 C1359.48,139.559 1360.63,141.26 1361.47,143.208 C1362.31,145.157 1362.73,147.242 1362.73,149.466 C1362.73,151.69 1362.32,153.776 1361.48,155.722 C1360.64,157.673 1359.5,159.371 1358.04,160.814 C1356.58,162.26 1354.88,163.388 1352.94,164.198 C1350.99,165.009 1348.9,165.413 1346.68,165.415 C1344.45,165.417 1342.37,165.017 1340.42,164.21 C1338.47,163.404 1336.77,162.279 1335.31,160.835 C1333.85,159.395 1332.7,157.699 1331.86,155.75 C1331.02,153.805 1330.6,151.72 1330.6,149.496 C1330.59,147.272 1331.01,145.187 1331.85,143.236 Z" id="Fill-21" fill="#2D2E2C"></path>
        <path d="M1294.11,101.377 L1271.01,101.377 C1269.32,101.377 1268.67,100.323 1268.67,99.048 L1268.89,96.078 C1269.32,89.934 1275.04,85.488 1282.68,85.488 C1290.09,85.488 1296.01,89.934 1296.45,95.866 L1296.66,98.831 C1296.66,100.323 1296.24,101.377 1294.11,101.377 Z M1281.83,61.324 C1256.82,61.324 1239.01,79.346 1239.01,99.886 L1239.01,127.229 C1239.01,150.095 1255.97,166 1281.83,166 C1295.81,166 1305.97,161.119 1313.17,154.139 C1316.56,150.749 1319.31,146.707 1321.66,142.697 C1322.92,140.574 1322.3,138.237 1321.02,137.604 L1300.05,127.014 C1298.78,126.376 1297.5,126.813 1296.85,128.705 C1293.9,136.114 1289.03,139.51 1281.83,139.51 C1273.98,139.51 1268.47,134.212 1268.47,127.427 L1268.47,122.772 C1268.47,121.287 1269.11,120.443 1271.01,120.443 L1322.07,120.443 C1323.34,120.443 1324.19,119.817 1324.19,118.326 L1324.19,99.886 C1324.19,79.544 1306.6,61.324 1281.83,61.324 Z" id="Fill-19" fill="#2D2E2C"></path>
        <path d="M1190.27,87.396 C1196.84,87.396 1201.72,91.633 1205.32,100.1 C1205.96,101.593 1207.01,102.009 1208.49,101.377 L1229.25,92.056 C1230.53,91.416 1230.97,90.148 1230.33,88.444 C1228.41,84.006 1226.29,79.978 1223.55,76.591 C1216.55,67.251 1206.18,61.956 1190.07,61.956 C1163.78,61.956 1147.9,77.856 1147.9,100.741 L1147.9,126.574 C1147.9,149.463 1163.78,165.148 1190.07,165.148 C1204.9,165.148 1214.64,160.702 1221.62,152.852 C1225.23,148.824 1228,143.964 1230.33,138.451 C1230.97,136.752 1230.53,135.694 1229.25,135.061 L1208.49,125.532 C1207.01,124.891 1205.96,125.312 1205.32,126.813 C1201.72,135.279 1196.84,139.724 1190.27,139.724 C1182.44,139.724 1177.35,134.212 1177.35,127.427 L1177.35,99.686 C1177.35,92.892 1182.44,87.396 1190.27,87.396" id="Fill-18" fill="#2D2E2C"></path>
        <path d="M1129.16,64.299 L1103.94,64.299 C1102.45,64.299 1101.81,64.929 1101.81,66.402 L1101.81,160.702 C1101.81,162.178 1102.45,162.819 1103.94,162.819 L1129.16,162.819 C1130.41,162.819 1131.06,162.178 1131.06,160.702 L1131.06,66.402 C1131.06,64.929 1130.2,64.299 1129.16,64.299" id="Fill-17" fill="#2D2E2C"></path>
        <path d="M1116.44,22.737 C1108.21,22.737 1101.54,29.41 1101.54,37.636 C1101.54,45.859 1108.21,52.531 1116.44,52.531 C1124.65,52.531 1131.35,45.859 1131.35,37.636 C1131.35,29.41 1124.65,22.737 1116.44,22.737" id="Fill-20" fill="#2D2E2C"></path>
        <path d="M1088.64,64.299 L1061.74,64.299 C1060.68,64.299 1059.83,64.929 1059.41,65.981 L1043.51,111.544 C1042.66,113.872 1041.39,119.379 1040.98,122.136 L1040.34,122.136 C1039.93,119.379 1038.86,114.302 1037.79,111.544 L1021.26,65.77 C1020.84,64.714 1020.22,64.299 1019.15,64.299 L992.232,64.299 C990.333,64.299 989.704,65.56 990.333,67.251 L1028.27,161.337 C1028.7,162.385 1029.52,162.819 1030.38,162.819 L1050.08,162.819 C1051.15,162.819 1051.98,162.385 1052.42,161.337 L1090.55,67.251 C1091.2,65.56 1090.55,64.299 1088.64,64.299" id="Fill-16" fill="#2D2E2C"></path>
        <path d="M949.709,126.159 C949.709,133.158 943.988,138.451 936.583,138.451 C928.946,138.451 923.653,133.158 923.653,126.159 L923.653,100.741 C923.653,93.956 928.946,88.864 936.583,88.864 C944.205,88.864 949.709,93.956 949.709,100.741 L949.709,126.159 Z M976.829,29.322 L951.815,29.322 C950.779,29.322 949.709,29.953 949.709,31.441 L949.709,60.903 C949.709,64.079 950.344,70.218 950.344,70.218 C946.11,66.402 939.113,64.299 934.021,64.299 C910.935,64.299 894.2,79.758 894.2,102.858 L894.2,124.254 C894.2,148.824 908.595,162.819 934.456,162.819 C940.383,162.819 947.392,160.902 951.815,157.114 C953.107,156.045 954.578,156.457 954.578,158.162 L954.578,161.337 C954.578,162.178 955.213,162.819 956.283,162.819 L976.829,162.819 C978.099,162.819 978.946,162.178 978.946,160.702 L978.946,31.441 C978.946,29.953 978.099,29.322 976.829,29.322 Z" id="Fill-15" fill="#2D2E2C"></path>
        <path d="M839.103,117.262 L826.178,117.262 C824.05,117.262 823.198,115.989 823.638,114.716 L828.073,97.566 C830.201,89.722 831.894,80.393 832.323,74.895 L833.175,74.895 C833.588,80.393 834.869,89.722 836.98,97.566 L841.432,114.716 C841.855,115.989 841.008,117.262 839.103,117.262 Z M844.194,30.808 C843.76,29.75 843.114,29.322 842.078,29.322 L823.198,29.322 C821.939,29.322 821.515,29.75 821.086,30.808 L779.354,160.067 C778.725,161.755 779.561,162.819 781.46,162.819 L808.162,162.819 C809.225,162.819 809.649,162.385 810.067,161.337 L816.217,142.042 C816.629,140.989 817.064,140.78 818.541,140.78 L846.512,140.78 C848,140.78 848.429,140.989 848.835,142.042 L854.768,161.337 C855.203,162.385 855.621,162.819 856.896,162.819 L883.799,162.819 C885.932,162.819 886.556,161.755 885.932,160.067 L844.194,30.808 Z" id="Fill-14" fill="#2D2E2C"></path>
        <path d="M703.277,101.377 L680.174,101.377 C678.492,101.377 677.846,100.323 677.846,99.048 L678.045,96.078 C678.492,89.934 684.202,85.488 691.828,85.488 C699.26,85.488 705.182,89.934 705.6,95.866 L705.812,98.831 C705.812,100.323 705.399,101.377 703.277,101.377 Z M690.987,61.324 C665.979,61.324 648.186,79.346 648.186,99.886 L648.186,127.229 C648.186,150.095 665.121,166 690.987,166 C704.987,166 715.138,161.119 722.347,154.139 C725.739,150.749 728.497,146.707 730.814,142.697 C732.084,140.574 731.45,138.237 730.185,137.604 L709.199,127.014 C707.94,126.376 706.669,126.813 706.023,128.705 C703.07,136.114 698.201,139.51 690.987,139.51 C683.149,139.51 677.622,134.212 677.622,127.427 L677.622,122.772 C677.622,121.287 678.269,120.443 680.174,120.443 L731.237,120.443 C732.508,120.443 733.376,119.817 733.376,118.326 L733.376,99.886 C733.376,79.544 715.784,61.324 690.987,61.324 Z" id="Fill-13" fill="#2D2E2C"></path>
        <path d="M635.472,64.714 C633.991,64.511 632.291,64.299 629.957,64.299 C621.913,64.299 614.269,68.107 610.893,72.344 C609.834,73.391 608.13,73.196 608.13,71.296 L608.13,66.402 C608.13,64.929 607.495,64.299 606.013,64.299 L585.885,64.299 C584.615,64.299 583.768,64.929 583.768,66.402 L583.768,160.702 C583.768,162.178 584.615,162.819 585.885,162.819 L610.893,162.819 C612.152,162.819 613.01,162.178 613.01,160.702 L613.01,104.549 C613.01,97.129 618.308,91.839 625.724,91.839 C628.898,91.839 631.656,92.257 634.191,92.892 C636.108,93.319 637.377,92.691 637.377,90.783 L637.377,66.837 C637.377,65.77 636.743,64.929 635.472,64.714" id="Fill-12" fill="#2D2E2C"></path>
        <path d="M523.094,139.948 L515.262,139.948 C510.794,139.948 508.27,137.187 508.27,131.239 C508.27,127.014 511.228,124.036 515.479,124.036 L533.474,124.036 C534.749,124.036 535.178,126.376 535.178,127.014 C534.749,134.849 528.815,139.948 523.094,139.948 Z M522.459,61.956 C509.328,61.956 499.585,66.199 492.376,72.766 C488.354,76.368 485.162,80.614 482.627,85.271 C481.351,87.396 481.992,89.722 483.262,90.349 L504.242,100.962 C505.513,101.593 506.777,101.159 507.418,99.257 C510.393,91.839 515.262,88.444 522.459,88.444 C530.304,88.444 535.178,93.755 535.178,100.527 L535.178,101.593 C535.178,103.081 534.537,103.917 533.055,103.917 L514.404,103.917 C495.763,103.917 480.716,114.081 480.716,131.886 L480.716,134.014 C480.716,152 494.281,162.819 512.51,162.819 L519.919,162.819 C525.635,162.819 531.997,160.902 536.448,157.309 C537.295,156.679 538.348,156.891 538.56,157.526 L539.201,161.119 C539.406,162.178 540.264,162.819 541.523,162.819 L562.292,162.819 C563.563,162.819 564.409,162.178 564.409,160.702 L564.409,100.741 C564.409,77.856 548.309,61.956 522.459,61.956 Z" id="Fill-11" fill="#2D2E2C"></path>
        <path d="M472.209,64.299 L446.572,64.299 C445.313,64.299 444.449,64.929 444.243,65.981 L434.711,105.817 C433.646,110.279 432.811,116.624 432.588,121.078 L431.958,121.078 C431.741,116.624 430.895,110.909 429.625,105.817 L420.087,65.981 C419.875,64.929 419.018,64.299 417.759,64.299 L396.789,64.299 C395.519,64.299 394.873,64.929 394.661,65.981 L385.341,105.616 C384.288,110.059 383.43,115.785 383.013,120.014 L382.372,120.014 C382.166,115.785 381.324,110.059 380.255,105.616 L370.505,65.981 C370.305,64.929 369.664,64.299 368.389,64.299 L342.121,64.299 C340.205,64.299 339.57,65.363 340.205,67.051 L370.087,161.337 C370.505,162.385 371.14,162.819 372.205,162.819 L390.861,162.819 C392.121,162.819 392.756,162.385 392.968,161.337 L404.622,117.473 C405.892,112.616 406.951,104.349 406.951,104.349 L407.586,104.349 C407.586,104.349 408.65,112.616 409.92,117.473 L421.357,161.119 C421.58,162.178 422.204,162.819 423.474,162.819 L441.92,162.819 C442.979,162.819 443.613,162.385 444.037,161.337 L474.326,67.051 C474.755,65.56 474.125,64.299 472.209,64.299" id="Fill-10" fill="#2D2E2C"></path>
        <path d="M329.308,64.299 L315.113,64.299 C313.208,64.299 312.578,63.658 312.578,62.174 L312.578,48.817 C312.578,47.332 312.155,46.909 310.673,46.909 L297.314,46.909 C296.478,46.909 295.42,47.332 294.779,47.962 L268.295,74.469 L268.295,88.864 C268.295,90.349 268.936,90.783 270.412,90.783 L281.002,90.783 C282.913,90.783 283.548,91.633 283.548,93.107 L283.548,126.159 C283.548,151.602 299.442,164.724 319.564,164.724 L328.467,164.724 C330.361,164.724 331.224,163.877 331.224,162.385 L331.224,140.574 C331.224,139.304 330.583,138.451 329.102,138.451 L325.503,138.451 C316.817,138.451 312.578,133.158 312.578,124.036 L312.578,93.107 C312.578,91.633 313.208,90.783 315.113,90.783 L329.308,90.783 C330.801,90.783 331.224,90.349 331.224,88.864 L331.224,66.402 C331.224,64.929 330.801,64.299 329.308,64.299" id="Fill-9" fill="#2D2E2C"></path>
        <path d="M265.96,28.265 C262.361,27.416 256.434,26.784 250.913,26.784 C219.56,26.784 207.688,48.609 207.688,65.77 L207.688,71.073 C207.688,72.561 207.064,73.196 205.37,73.196 L200.49,73.196 C199.208,73.196 198.368,73.831 198.368,75.307 L198.368,97.566 C198.368,99.048 199.208,99.686 200.49,99.686 L205.37,99.686 C207.264,99.686 207.688,100.323 207.688,101.792 L207.688,160.702 C207.688,162.178 208.323,162.819 209.81,162.819 L234.813,162.819 C236.3,162.819 236.936,162.178 236.936,160.702 L236.936,101.792 C236.936,100.323 237.57,99.686 239.264,99.686 L253.036,99.686 C254.517,99.686 255.153,99.048 255.153,97.566 L255.153,75.307 C255.153,73.831 254.517,73.196 253.036,73.196 L239.264,73.196 C237.57,73.196 236.936,72.561 236.936,71.073 L236.936,65.363 C236.936,57.931 242.239,53.254 250.284,53.254 C253.036,53.254 255.994,53.692 258.328,54.321 C259.81,54.756 260.662,54.321 261.085,53.056 L267.654,31.243 C268.077,29.75 267.654,28.684 265.96,28.265" id="Fill-8" fill="#2D2E2C"></path>
        <path d="M156.435,127.427 C156.435,134.212 150.92,139.724 143.521,139.724 C135.677,139.724 130.162,134.212 130.162,127.427 L130.162,99.686 C130.162,93.107 135.677,87.396 143.521,87.396 C150.92,87.396 156.435,92.892 156.435,99.686 L156.435,127.427 Z M143.521,61.956 C117.661,61.956 100.714,77.856 100.714,100.741 L100.714,126.574 C100.714,149.463 117.661,165.148 143.521,165.148 C168.936,165.148 185.883,149.679 185.883,126.574 L185.883,100.741 C185.883,77.644 168.936,61.956 143.521,61.956 Z" id="Fill-7" fill="#2D2E2C"></path>
        <path d="M55.154,83.148 C43.494,78.689 30.999,75.519 30.999,65.981 C30.999,58.366 36.715,53.254 44.124,53.254 L47.299,53.254 C54.508,53.254 59.388,56.664 62.352,64.079 C62.981,65.981 64.252,66.402 65.522,65.77 L86.502,55.176 C87.767,54.544 88.414,52.204 87.143,50.082 C85.438,46.909 83.321,43.737 80.781,40.979 C73.36,32.725 62.765,26.784 47.299,26.784 L44.124,26.784 C17.639,26.784 1.327,42.466 1.327,66.402 C1.327,90.783 17.004,99.886 36.502,107.736 C49.216,112.816 60.23,115.574 60.23,126.159 C60.23,134.849 53.45,138.669 45.823,138.669 L40.53,138.669 C33.316,138.669 28.453,135.279 25.483,127.85 C24.848,125.95 23.572,125.532 22.308,126.159 L1.327,136.752 C0.058,137.396 -0.578,139.724 0.692,141.844 C2.592,145.242 4.932,148.627 7.689,151.602 C14.876,159.633 25.483,165.148 40.53,165.148 L47.299,165.148 C74.207,165.148 89.889,149.679 89.889,125.739 C89.889,100.962 75.271,90.981 55.154,83.148" id="Fill-4" fill="#2D2E2C"></path>
    </g>
</svg>
