<svg xmlns="http://www.w3.org/2000/svg" width="26.298" height="25.272" viewBox="0 0 26.298 25.272">
  <g id="_2861107" data-name="2861107" transform="translate(-2.5 -2.568)">
    <path id="Path_1017" data-name="Path 1017" d="M40.357,5a5.357,5.357,0,1,0,5.357,5.357A5.363,5.363,0,0,0,40.357,5Zm3.3,5.769a.413.413,0,0,1-.412.412h-2.06v2.06a.413.413,0,0,1-.412.412h-.824a.413.413,0,0,1-.412-.412v-2.06h-2.06a.413.413,0,0,1-.412-.412V9.945a.413.413,0,0,1,.412-.412h2.06V7.472a.413.413,0,0,1,.412-.412h.824a.413.413,0,0,1,.412.412v2.06h2.06a.413.413,0,0,1,.412.412Z" transform="translate(-17.415 -1.426)" fill="none" stroke="#fd1916" stroke-width="1"/>
    <path id="Path_1019" data-name="Path 1019" d="M15.736,9.534c0-.167.012-.331.025-.5a45.157,45.157,0,0,0-4.27-5.75C10.12,4.709,3,13.921,3,19.3a8.5,8.5,0,0,0,5.094,7.777v-3.83a5.459,5.459,0,0,1-.849-2.93V19.219a1.272,1.272,0,0,1-.849-1.2V15.477A1.269,1.269,0,0,1,8.143,14.3a1.262,1.262,0,0,1,2.073-.611,1.263,1.263,0,0,1,.849-.331,1.277,1.277,0,0,1,.425.073V10.383a1.274,1.274,0,0,1,2.547,0v4.67h.849a1.7,1.7,0,0,1,1.7,1.7v3.2a3.409,3.409,0,0,1-.744,2.121l-.954,1.192v3.807A8.5,8.5,0,0,0,19.981,19.3a11.851,11.851,0,0,0-1-4.224A6.368,6.368,0,0,1,15.736,9.534Z" fill="none" stroke="#fd1916" stroke-width="1"/>
  </g>
</svg>
