<svg id="Arabic" xmlns="http://www.w3.org/2000/svg" width="19.409" height="19.409" viewBox="0 0 19.409 19.409">
  <ellipse id="Ellipse_123" data-name="Ellipse 123" cx="9.704" cy="9.704" rx="9.704" ry="9.704" transform="translate(0.001 0.001)" fill="#fff"/>
  <path id="Path_943" data-name="Path 943" d="M320.2,157.875H314.22a26.834,26.834,0,0,1,.005,6.433h5.987a9.714,9.714,0,0,0-.013-6.433Z" transform="translate(-301.345 -151.406)" fill="#efecec"/>
  <path id="Path_944" data-name="Path 944" d="M260.414,7.4h5.979l0-.008A9.71,9.71,0,0,0,258.115.972C259.6,1.786,260.034,4.366,260.414,7.4Z" transform="translate(-247.539 -0.932)" fill="#c42b27"/>
  <path id="Path_945" data-name="Path 945" d="M258.115,321.338a9.711,9.711,0,0,0,8.282-6.44l.009-.028h-5.987C260.042,317.922,259.607,320.52,258.115,321.338Z" transform="translate(-247.539 -301.969)" fill="#0b0b0b"/>
  <path id="Path_946" data-name="Path 946" d="M0,161.111a9.69,9.69,0,0,0,.542,3.2H13.38a26.834,26.834,0,0,0,0-6.433H.555A9.684,9.684,0,0,0,0,161.111Z" transform="translate(0 -151.406)" fill="#efefef"/>
  <path id="Path_947" data-name="Path 947" d="M13.536,6.461l0,.008H26.354C25.974,3.434,25.04.854,23.555.04,23.267.014,22.977,0,22.683,0A9.707,9.707,0,0,0,13.536,6.461Z" transform="translate(-12.978 0)" fill="#cc3434"/>
  <path id="Path_948" data-name="Path 948" d="M26.057,314.871H13.219l.009.028a9.707,9.707,0,0,0,9.153,6.48c.294,0,.584-.014.872-.04C24.745,320.52,25.68,317.922,26.057,314.871Z" transform="translate(-12.677 -301.969)" fill="#151515"/>
  <g id="Group_1083" data-name="Group 1083" transform="translate(7.783 7.467)">
    <path id="Path_949" data-name="Path 949" d="M193.768,186.736a2.624,2.624,0,0,0-.432-.014c-.027.016-.023.062-.035.092.014.029.042.013.071.035.044.042.074.1.142.12-.058.061-.056.18-.142.213.014.139-.076.164-.213.191a8.319,8.319,0,0,1-2.364.049,1.181,1.181,0,0,1-.4-.106.132.132,0,0,1-.035-.121c-.082-.041-.083-.163-.149-.219.092-.031.109-.136.213-.156a.318.318,0,0,0-.022-.1,2.842,2.842,0,0,0-.446.014c.011-.158.015-.338.029-.524.018-.248.015-.539.035-.786.01-.126.006-.256.014-.382.015-.239,0-.477.021-.7.018-.242.01-.5.028-.729s.084-.426.361-.4c.328.027.534.3.892.3a.933.933,0,0,0,.241-.8c-.021-.138-.167-.337-.311-.262-.021-.233.2-.2.347-.127.045-.028.058-.067.106-.078a.533.533,0,0,1,.333.064.458.458,0,0,1,.163.411c0,.1-.022.2-.014.3a.892.892,0,0,0,.177.488c.332.03.576-.265.9-.3a.325.325,0,0,1,.312.127,6.184,6.184,0,0,1,.092,1.1c.018.229.007.468.021.7C193.729,185.664,193.745,186.193,193.768,186.736Zm-1.593-3.7a2.064,2.064,0,0,0-.028-.573c-.031-.03-.05-.073-.092-.092h-.106c-.053.029-.072.087-.128.1-.131.028-.141-.1-.241-.134-.026-.01-.061,0-.092-.014-.095-.029-.151-.063-.2.071.173-.01.328.046.368.191-.1-.028-.071.061-.064.12a1.052,1.052,0,0,1-.127.687c-.047.076-.107.136-.142.205.1-.019.2-.013.248-.078.069-.086.054-.271.1-.375a.765.765,0,0,1-.17.5c.252-.036.3-.246.318-.5a.668.668,0,0,1-.057.354c.033.041.051.1.1.121a.345.345,0,0,0,.092-.127.538.538,0,0,1-.042-.347c0,.272.071.467.3.5a.7.7,0,0,1-.156-.51,1.145,1.145,0,0,0,.092.389.5.5,0,0,0,.248.071A.985.985,0,0,1,192.175,183.034Zm-.446-.644v.028c.017,0,.015.013.035.007a.043.043,0,0,0,.007-.035A.035.035,0,0,0,191.73,182.39Zm-1.366.842a.27.27,0,0,0-.241.3c.068-.024.134-.088.205-.085-.038,1.065-.085,2.034-.127,3.086a.838.838,0,0,0-.184.177h.382c.02-.169.21-.2.368-.156.075-.26.151-.518.22-.786-.07.043-.106.12-.177.163.025-.681.06-1.344.085-2.038a.623.623,0,0,0,.46.064,1.413,1.413,0,0,0,.517-.227,1.155,1.155,0,0,0,.637.241.769.769,0,0,0,.326-.064c.015.694.064,1.373.078,2.032a1.983,1.983,0,0,0-.17-.163c.063.268.144.517.212.779.165-.052.347-.007.375.156.125,0,.269.009.382-.007-.045-.079-.154-.1-.184-.184a1.432,1.432,0,0,1-.014-.354c-.039-.856-.093-1.867-.113-2.725a2.149,2.149,0,0,1,.205.092c-.016-.171-.087-.287-.248-.3-.366-.025-.578.312-.948.3,0,.045.072.055.064.085a1.078,1.078,0,0,1-.248-.035c-.007.039.064.057.071.106a.632.632,0,0,1-.333-.163.657.657,0,0,1-.106.134.84.84,0,0,0-.106-.134.461.461,0,0,1-.325.156c.021-.036.063-.05.071-.1a.642.642,0,0,1-.248.029c.022-.026.059-.035.064-.078C190.961,183.546,190.716,183.2,190.364,183.232Zm.686.765a1.813,1.813,0,0,0,.821,1.635,1.846,1.846,0,0,0,.8-1.635,1.459,1.459,0,0,1-.58-.106c-.087-.037-.171-.106-.241-.127A1.257,1.257,0,0,1,191.05,184Zm.014.517c-.007.344-.062.764-.035,1.118a2.407,2.407,0,0,0,.064-.686.932.932,0,0,0-.021-.453A.033.033,0,0,1,191.064,184.513Zm1.572.637a1.13,1.13,0,0,0,.071.488c.007-.376-.04-.768-.042-1.14-.009,0-.01-.009-.021-.007A2.91,2.91,0,0,0,192.636,185.15Zm-1.458.4c.061-.069.129-.131.184-.206a.547.547,0,0,0-.127-.361C191.212,185.169,191.037,185.4,191.178,185.554Zm1.189-.2c.066.061.123.169.2.2.106-.172-.047-.357-.063-.552-.009,0-.01-.009-.022-.007A.563.563,0,0,0,192.367,185.355Zm-.949.319a1.966,1.966,0,0,0,.177-.227c-.088-.07-.152-.164-.233-.241C191.38,185.363,191.39,185.527,191.418,185.674Zm.715-.22a1.2,1.2,0,0,0,.184.22c.014-.153.026-.309.049-.453,0-.009,0-.017-.014-.014A2.426,2.426,0,0,1,192.133,185.454Zm-.977.142c-.009-.046-.033-.076-.042-.12a.971.971,0,0,0-.1.311c-.011.04-.039.072-.035.113.081-.035.114-.117.2-.149a1.761,1.761,0,0,0,.071.184c.066-.031.063-.131.121-.17.032.114.066.227.106.333.075-.064.161-.117.184-.234-.042-.1-.081-.2-.12-.3-.057.039-.094.137-.142.163a1.093,1.093,0,0,0-.05-.34A1.3,1.3,0,0,1,191.156,185.6Zm1.175.142c-.052-.052-.087-.12-.142-.17-.02.046-.044.092-.064.142a.613.613,0,0,0-.057.156c-.005.111.117.163.184.234a2.028,2.028,0,0,1,.092-.333c.044.055.064.135.127.17.033-.059.055-.129.085-.191a1.89,1.89,0,0,0,.184.156,2.484,2.484,0,0,0-.127-.432.558.558,0,0,1-.057.127,1.9,1.9,0,0,0-.191-.2A2.248,2.248,0,0,0,192.331,185.737Zm-.722-.269c-.115.082.013.247.057.34.02-.082.039-.165.057-.248C191.684,185.531,191.646,185.5,191.609,185.469Zm.4.1a.85.85,0,0,0,.064.241c.04-.084.069-.177.106-.262-.02-.029-.033-.066-.071-.078C192.088,185.517,192.025,185.521,192.006,185.568Zm-.856.212a.723.723,0,0,1-.184.156c-.049.143.053.264.1.375.064-.047.092-.13.156-.177a1.07,1.07,0,0,0,.085.241c.069-.049.109-.164.177-.191a.533.533,0,0,0,.057.219c.025-.135.057-.263.085-.4-.057.012-.1.1-.156.135-.039-.1-.065-.218-.106-.319-.056.039-.063.126-.113.17A.659.659,0,0,0,191.149,185.78Zm1.316.213c-.04-.059-.064-.133-.127-.17-.025.106-.054.21-.078.319-.059-.034-.1-.123-.156-.135a1.843,1.843,0,0,0,.1.4,1.3,1.3,0,0,1,.05-.233c.064.061.1.153.177.2.022-.084.052-.16.078-.241.06.051.088.133.156.177.039-.114.139-.22.1-.368-.074-.047-.128-.112-.2-.163C192.523,185.842,192.509,185.931,192.466,185.992Zm-.771.559c-.036.02-.062.051-.1.071-.015-.018-.059-.075-.071-.05s-.011.065-.021.092c.068.006.2-.02.233.042.1-.013.173.018.248,0,.028-.007.05-.037.078-.042.053-.01.1.009.156,0-.01-.031,0-.078-.022-.1-.046,0-.038.051-.085.049-.024-.032-.068-.046-.092-.078-.027-.2-.044-.4-.085-.588-.016.2.029.391.021.6-.038.033-.056.085-.1.113-.016-.047-.08-.072-.092-.134-.031-.173.064-.441.022-.581C191.747,186.141,191.738,186.364,191.694,186.551Zm-.906.007a.175.175,0,0,0,.12.028,1.144,1.144,0,0,1,.134-.17,1.643,1.643,0,0,0,.085.219h.049c.038-.046.06-.11.1-.156.025.055.037.124.063.177a.483.483,0,0,0,.127.007.549.549,0,0,0-.007-.439c-.065.058-.1.142-.17.2a.714.714,0,0,0-.092-.241c-.049.056-.094.118-.141.177-.05-.089-.064-.214-.135-.283C190.885,186.244,190.837,186.4,190.788,186.559Zm1.876-.2a.814.814,0,0,0-.149-.177c-.042.069-.048.174-.092.241-.054-.061-.1-.165-.17-.191a.558.558,0,0,0,.007.432.428.428,0,0,0,.12-.007c.033-.05.038-.127.071-.177.03.053.062.1.092.156h.057a2.245,2.245,0,0,1,.092-.227,1.039,1.039,0,0,0,.134.184c.04-.01.09-.01.106-.042-.048-.153-.088-.313-.134-.467h-.021C192.744,186.18,192.7,186.271,192.664,186.36Zm-1.734.241a1.458,1.458,0,0,0,.17.028.4.4,0,0,0-.078-.17C191,186.513,190.948,186.542,190.93,186.6Zm1.7.028a1.323,1.323,0,0,0,.163-.028c-.005-.043-.061-.095-.092-.134C192.655,186.5,192.646,186.569,192.629,186.629Zm-1.423.014c.023.014.072,0,.106.007-.014-.041-.011-.1-.049-.113A.356.356,0,0,0,191.206,186.644Zm1.211.007h.1a.133.133,0,0,0-.071-.113C192.443,186.58,192.406,186.619,192.416,186.651Zm.687-.1a5.331,5.331,0,0,1-.588.121,2.931,2.931,0,0,1-.453.014c-.042.045-.02.1.007.142a1.644,1.644,0,0,0,.446-.007c-.008-.15.171-.187.191-.028a1.887,1.887,0,0,0,.446-.113C193.154,186.619,193.153,186.56,193.1,186.551Zm-2.024.106c-.121-.017-.285-.075-.4-.1-.063-.014-.082,0-.106.028v.1a2.326,2.326,0,0,0,.446.106c.013-.16.193-.13.184.028a1.658,1.658,0,0,0,.446.007c.031-.05.052-.086.014-.142A3.269,3.269,0,0,1,191.079,186.658Zm-.644.085a.3.3,0,0,0,.12-.064c0-.034.007-.083-.007-.106A.132.132,0,0,0,190.435,186.743Zm2.739-.057a.333.333,0,0,0,.12.057.138.138,0,0,0-.113-.17C193.166,186.6,193.177,186.649,193.174,186.686Zm-2.06.191a.294.294,0,0,1,.057-.042.157.157,0,0,0-.028-.127C191.018,186.69,191.023,186.863,191.114,186.877Zm1.437-.049c.01.025.043.03.071.049.029-.016.043-.047.064-.071C192.682,186.651,192.5,186.715,192.551,186.828Zm-1.543-.014c-.188-.006-.378-.139-.545-.057-.005.034-.031.049-.021.1-.08-.008-.172.1-.177.135-.011.08.069.139.113.191a.174.174,0,0,0,.021.113,6.352,6.352,0,0,0,2.329.121c.217-.024.564-.046.623-.17v-.085c.078-.021.091-.107.113-.184-.063-.041-.084-.123-.184-.127.02-.029-.014-.054-.014-.085-.088-.075-.194-.02-.318.007-.171.037-.284.038-.326.163-.018-.044-.06-.063-.092-.092a1.47,1.47,0,0,1-.453.007c-.037.057-.118.071-.127.156a.354.354,0,0,1-.05-.17h-.071a.383.383,0,0,1-.057.17c-.006-.086-.09-.094-.12-.156a1.973,1.973,0,0,1-.453,0c-.048.015-.069.058-.106.085C191.087,186.871,191.036,186.854,191.008,186.813Zm.772-.085a.3.3,0,0,0,.05.085c.086.018.094-.043.12-.085A.423.423,0,0,0,191.779,186.728Zm-.1.121a.269.269,0,0,0,.106.078c.028-.073.008-.182-.071-.191C191.722,186.791,191.674,186.793,191.68,186.849Zm.3-.113c-.044.032-.1.149-.029.191.027-.035.075-.048.092-.092C192.019,186.81,192.025,186.749,191.985,186.736Z" transform="translate(-189.953 -182.241)" fill="#eebc31"/>
    <path id="Path_950" data-name="Path 950" d="M197.281,215.4a2.083,2.083,0,0,1-.241.205c.034-.966.1-1.959.127-2.958a.978.978,0,0,1,.219.184C197.356,213.694,197.316,214.487,197.281,215.4Z" transform="translate(-196.75 -211.4)" fill="#eebc31"/>
    <path id="Path_951" data-name="Path 951" d="M267.728,215.438c-.04.008-.08-.058-.12-.092a.609.609,0,0,1-.127-.113c-.045-.729-.034-1.5-.092-2.194a1.846,1.846,0,0,1-.014-.361c.022-.086.169-.119.213-.2C267.64,213.368,267.677,214.482,267.728,215.438Z" transform="translate(-264.196 -211.241)" fill="#eebc31"/>
    <path id="Path_952" data-name="Path 952" d="M204.568,218.352a1.437,1.437,0,0,1,.177.142c-.017.569-.053,1.25-.078,1.819a1.166,1.166,0,0,1-.007.29c-.03.082-.145.127-.2.2C204.493,219.976,204.541,219.16,204.568,218.352Z" transform="translate(-203.867 -216.872)" fill="#eebc31"/>
    <path id="Path_953" data-name="Path 953" d="M262.093,220.939c-.009.01-.029-.015-.042-.029-.042-.041-.1-.105-.142-.148-.036-.692-.063-1.415-.092-2.1a.757.757,0,0,1,.163-.149C262.021,219.256,262.057,220.14,262.093,220.939Z" transform="translate(-258.872 -217.025)" fill="#eebc31"/>
    <path id="Path_954" data-name="Path 954" d="M219.279,220.811a1.814,1.814,0,0,1-.743,1.55,1.9,1.9,0,0,1-.772-1.55,1.331,1.331,0,0,0,.772-.219A1.222,1.222,0,0,0,219.279,220.811Zm-1-.05c-.013.29-.007.68-.007,1a1.608,1.608,0,0,0,0,.34c.013.046.083.088.12.12a.808.808,0,0,0,.134.106c.069-.054.238-.137.262-.227a1.6,1.6,0,0,0,0-.333v-1.005c-.092-.045-.178-.1-.269-.142C218.457,220.683,218.35,220.7,218.281,220.762Z" transform="translate(-216.624 -219.021)" fill="#eebc31"/>
    <path id="Path_955" data-name="Path 955" d="M206.542,288.477c.044.015.114,0,.12.057-.037.014-.068-.035-.12-.029Z" transform="translate(-205.862 -284.124)" fill="#eebc31"/>
    <path id="Path_956" data-name="Path 956" d="M263.836,288.605a.475.475,0,0,1-.12.049C263.715,288.605,263.811,288.581,263.836,288.605Z" transform="translate(-260.693 -284.238)" fill="#eebc31"/>
    <path id="Path_957" data-name="Path 957" d="M211.725,290.208a.242.242,0,0,1,.148.049C211.827,290.259,211.734,290.248,211.725,290.208Z" transform="translate(-210.833 -285.784)" fill="#eebc31"/>
    <path id="Path_958" data-name="Path 958" d="M257.822,290.3a.234.234,0,0,1-.156.042A.2.2,0,0,1,257.822,290.3Z" transform="translate(-254.891 -285.865)" fill="#eebc31"/>
    <path id="Path_959" data-name="Path 959" d="M248.32,291.821a.353.353,0,0,1-.156,0C248.176,291.773,248.3,291.777,248.32,291.821Z" transform="translate(-245.779 -287.298)" fill="#eebc31"/>
    <path id="Path_960" data-name="Path 960" d="M221.394,291.876c-.014.052-.113.019-.17.028C221.228,291.84,221.347,291.876,221.394,291.876Z" transform="translate(-219.943 -287.374)" fill="#eebc31"/>
    <path id="Path_961" data-name="Path 961" d="M227.064,292.24a.269.269,0,0,1-.149.021C226.929,292.222,227.023,292.227,227.064,292.24Z" transform="translate(-225.4 -287.724)" fill="#eebc31"/>
    <path id="Path_962" data-name="Path 962" d="M242.617,292.236a1.472,1.472,0,0,1-.149-.021C242.495,292.19,242.617,292.188,242.617,292.236Z" transform="translate(-240.316 -287.692)" fill="#eebc31"/>
    <path id="Path_963" data-name="Path 963" d="M254.8,294.055c.032,0,.015-.052.049-.05-.005.022.007.026.007.042a.14.14,0,0,1-.127.014c-.056.03-.125.132-.2.057-.051.008-.043.074-.085.092-.057-.045-.105-.023-.191-.014-.025.029-.028.081-.078.085,0-.032.042-.029.042-.063s-.048-.013-.064-.029c-.013-.058.032-.058.05-.085.032.008.035.045.042.078a.162.162,0,0,0,.064-.014.168.168,0,0,1,.049-.092c0-.039-.025-.093-.021-.113.04.009.021.078.042.106.054-.005.087.013.1.049.055-.021.072-.085.142-.085.031,0,.047.027.078.021.008-.094-.016-.287-.134-.213.005-.037.058-.028.1-.028C254.737,293.865,254.666,294.061,254.8,294.055Zm-.248.057c.033.029.115.013.106-.042C254.636,294.033,254.536,294.048,254.55,294.111Zm-.141.035a.255.255,0,0,0,.049-.014C254.458,294.052,254.345,294.092,254.409,294.146Zm-.064.021c.018,0,.022-.011.035-.014,0-.023,0-.05-.021-.049S254.326,294.145,254.345,294.168Zm-.17.014c.022.01.032,0,.05-.007,0-.017-.012-.021-.007-.042C254.188,294.134,254.169,294.145,254.175,294.182Zm.241,0a.031.031,0,0,0,.05-.029C254.443,294.158,254.415,294.155,254.415,294.182Z" transform="translate(-251.52 -289.241)" fill="#eebc31"/>
    <path id="Path_964" data-name="Path 964" d="M205.741,294.434v.035c-.01.011-.036.006-.057.007-.006-.025,0-.018-.007-.042A.05.05,0,0,1,205.741,294.434Z" transform="translate(-205.034 -289.826)" fill="#eebc31"/>
    <path id="Path_965" data-name="Path 965" d="M205.39,296.583c0,.013-.009.015-.007.028-.029,0-.055,0-.057-.028A.067.067,0,0,1,205.39,296.583Z" transform="translate(-204.696 -291.89)" fill="#eebc31"/>
    <path id="Path_966" data-name="Path 966" d="M242.977,298.155h.028a.055.055,0,0,1,0,.057h-.028A.055.055,0,0,1,242.977,298.155Z" transform="translate(-240.797 -293.405)" fill="#eebc31"/>
    <path id="Path_967" data-name="Path 967" d="M214.88,298.495c.022.092.038.291-.042.3s-.057-.108-.134-.113a.209.209,0,0,1-.156.014c-.035,0-.03.046-.064.05.046-.047.026-.107.021-.163.038,0,.043.042.042.085.02.043.106.014.134,0-.015-.03-.034-.056-.05-.085.043-.011.043-.052.085-.049a.074.074,0,0,1,.014.142c.046.017.052.075.092.1C214.917,298.758,214.849,298.577,214.88,298.495Zm-.212.113c0,.027.023.042.049.057C214.837,298.611,214.673,298.495,214.668,298.608Z" transform="translate(-213.479 -293.731)" fill="#eebc31"/>
    <path id="Path_968" data-name="Path 968" d="M225.886,298.495c.023.049-.008.16-.014.227A.588.588,0,0,1,225.886,298.495Z" transform="translate(-224.393 -293.731)" fill="#eebc31"/>
    <path id="Path_969" data-name="Path 969" d="M243.919,298.495c.047.047-.008.2.049.233.048-.014.081-.008.092-.049s-.041-.059-.014-.085c.063,0,.021.092.014.127a.485.485,0,0,1-.213.014c0-.036.042-.038.071-.05C243.946,298.625,243.9,298.544,243.919,298.495Z" transform="translate(-241.64 -293.731)" fill="#eebc31"/>
    <path id="Path_970" data-name="Path 970" d="M243.085,300.213c0,.041-.086.018-.057-.007C243.038,300.2,243.084,300.191,243.085,300.213Z" transform="translate(-240.848 -295.364)" fill="#eebc31"/>
    <path id="Path_971" data-name="Path 971" d="M250.647,301.131a.385.385,0,0,1,.05-.092c-.02-.04-.1-.077-.043-.127C250.762,300.927,250.711,301.1,250.647,301.131Zm.007-.184c0,.027.015.047.043.05C250.713,300.975,250.681,300.923,250.653,300.946Z" transform="translate(-248.148 -296.048)" fill="#eebc31"/>
    <path id="Path_972" data-name="Path 972" d="M268.455,301.3c0,.041-.051.028-.071.014C268.395,301.279,268.431,301.291,268.455,301.3Z" transform="translate(-265.17 -296.413)" fill="#eebc31"/>
    <path id="Path_973" data-name="Path 973" d="M227.756,301.434a.315.315,0,0,0,.269.035c.021.02.019.062.036.085a.06.06,0,0,1,.042-.007c-.015-.084.1-.1.1-.014-.022.04-.085.038-.149.036-.029.016-.029.061-.057.078a.083.083,0,0,1-.064-.063,1.116,1.116,0,0,0-.227-.014c-.029.034-.056.1-.1.1.021-.036.061-.052.071-.1-.013-.027-.062-.048-.036-.092.068-.011.035.079.092.078C227.795,301.53,227.748,301.473,227.756,301.434Zm.021.12c.038,0,.1,0,.156.007.022.018.025.055.057.064.023-.031.063-.089.029-.134C227.94,301.555,227.77,301.407,227.777,301.554Zm.354-.007c.037.006.05-.011.05-.042C228.154,301.469,228.106,301.51,228.131,301.547Z" transform="translate(-226.064 -296.55)" fill="#eebc31"/>
    <path id="Path_974" data-name="Path 974" d="M205.721,302.264c.022-.006.022.011.035.014a.115.115,0,0,1-.014.049C205.7,302.323,205.7,302.287,205.721,302.264Z" transform="translate(-205.062 -297.345)" fill="#eebc31"/>
    <path id="Path_975" data-name="Path 975" d="M207.466,302.955c.03.049-.042.075-.064.035C207.4,302.96,207.427,302.949,207.466,302.955Z" transform="translate(-206.687 -298.007)" fill="#eebc31"/>
    <path id="Path_976" data-name="Path 976" d="M210.049,303.437c-.007,0-.006.009-.007.014h-.05C209.958,303.393,210.051,303.373,210.049,303.437Z" transform="translate(-209.164 -298.433)" fill="#eebc31"/>
    <path id="Path_977" data-name="Path 977" d="M245.064,305.406c.038,0,.033.061.007.071S245.044,305.418,245.064,305.406Z" transform="translate(-242.791 -300.359)" fill="#eebc31"/>
    <path id="Path_978" data-name="Path 978" d="M246.668,305.6c-.021-.008-.042-.015-.049-.035C246.64,305.5,246.727,305.558,246.668,305.6Z" transform="translate(-244.297 -300.482)" fill="#eebc31"/>
    <path id="Path_979" data-name="Path 979" d="M205.777,294.7h.021c0,.1-.146.264.021.276.027-.017.012-.077.049-.085,0,.037-.014.052-.021.078.032.091.2.039.127-.063.079,0,.017.086.007.12a.162.162,0,0,1-.148-.029c-.079-.006-.148-.022-.156-.1C205.749,294.869,205.764,294.785,205.777,294.7Z" transform="translate(-205.034 -290.091)" fill="#eebc31"/>
  </g>
</svg>
