<svg xmlns="http://www.w3.org/2000/svg" width="53.614" height="47.663" viewBox="0 0 53.614 47.663">
  <g id="Blog" transform="translate(0 -27.536)">
    <path id="Path_1032" data-name="Path 1032" d="M70.191,109.816a2.577,2.577,0,0,1,2.577,2.577v33.751H24.435V112.393a2.577,2.577,0,0,1,2.577-2.577Z" transform="translate(-21.794 -73.388)" fill="#5f99d7"/>
    <path id="Path_1033" data-name="Path 1033" d="M34.264,109.816H27.012a2.577,2.577,0,0,0-2.577,2.577v33.751h7.252V112.393A2.577,2.577,0,0,1,34.264,109.816Z" transform="translate(-21.794 -73.388)" fill="#3c87d0"/>
    <path id="Path_1034" data-name="Path 1034" d="M79.862,109.816h36.354v27.431H79.862Z" transform="translate(-71.232 -73.388)" fill="#3c87d0"/>
    <path id="Path_1035" data-name="Path 1035" d="M96.283,140.236v27.382a.421.421,0,0,1-.421.421H54.855a.421.421,0,0,1-.421-.421V140.236a.421.421,0,0,1,.421-.421H95.863A.421.421,0,0,1,96.283,140.236Z" transform="translate(-48.552 -100.145)" fill="#dff6fd"/>
    <path id="Path_1036" data-name="Path 1036" d="M58.444,139.816h-3.59a.421.421,0,0,0-.421.421v27.381a.421.421,0,0,0,.421.421h3.59Z" transform="translate(-48.552 -100.146)" fill="#c8effe"/>
    <g id="Group_9541" data-name="Group 9541" transform="translate(0 27.536)">
      <path id="Path_1037" data-name="Path 1037" d="M50.7,435.04H2.912A2.912,2.912,0,0,1,0,432.128v-.676a.477.477,0,0,1,.477-.477H53.138a.477.477,0,0,1,.477.477v.676A2.912,2.912,0,0,1,50.7,435.04Z" transform="translate(0 -387.377)" fill="#7bacdf"/>
      <path id="Path_1038" data-name="Path 1038" d="M9.456,432.128v-.676a.477.477,0,0,1,.477-.477H.477a.477.477,0,0,0-.477.477v.676a2.912,2.912,0,0,0,2.912,2.912h9.456A2.912,2.912,0,0,1,9.456,432.128Z" transform="translate(0 -387.377)" fill="#5f99d7"/>
      <path id="Path_1039" data-name="Path 1039" d="M79.862,139.816h36.354v28.223H79.862Z" transform="translate(-71.232 -127.682)" fill="#99e6fc"/>
      <path id="Path_1040" data-name="Path 1040" d="M131.893,117.348V84.355a1.371,1.371,0,0,0-1.371-1.371H101.233a1.371,1.371,0,0,0-1.371,1.371v32.993h32.031Z" transform="translate(-89.07 -76.992)" fill="#dff6fd"/>
      <path id="Path_1041" data-name="Path 1041" d="M152.727,91.839H154.6l1.283,1.283a3.333,3.333,0,0,0,4.713,0l1.283-1.283h1.875a5.375,5.375,0,0,0,5.369-5.369V82.984H147.358v3.487a5.375,5.375,0,0,0,5.369,5.369Z" transform="translate(-131.434 -76.992)" fill="#c8effe"/>
      <path id="Path_1042" data-name="Path 1042" d="M181.594,27.537H170.566a3.207,3.207,0,0,0-3.207,3.207v6.271a3.207,3.207,0,0,0,3.207,3.207h2.77l1.916,1.916a1.172,1.172,0,0,0,1.657,0l1.916-1.916h2.77a3.207,3.207,0,0,0,3.207-3.207V30.744A3.207,3.207,0,0,0,181.594,27.537Z" transform="translate(-149.273 -27.537)" fill="#f37c7c"/>
      <g id="Group_9536" data-name="Group 9536" transform="translate(18.086 0)">
        <path id="Path_1043" data-name="Path 1043" d="M171.52,37.539V30.745a3.488,3.488,0,0,1,1.976-3.209h-2.93a3.207,3.207,0,0,0-3.207,3.207v6.271a3.207,3.207,0,0,0,3.207,3.207h2.124A3.586,3.586,0,0,1,171.52,37.539Z" transform="translate(-167.359 -27.536)" fill="#ee6161"/>
      </g>
      <path id="Path_1044" data-name="Path 1044" d="M214.263,66.288l2.97-2.97a2.2,2.2,0,1,0-3.105-3.106l-.373.373-.453-.435a2.2,2.2,0,0,0-3.074.031l-.031.031a2.2,2.2,0,0,0,0,3.106l2.97,2.97A.775.775,0,0,0,214.263,66.288Z" transform="translate(-186.908 -56.08)" fill="#f3f0f3"/>
      <circle id="Ellipse_133" data-name="Ellipse 133" cx="5.157" cy="5.157" r="5.157" transform="translate(14.795 17.516)" fill="#c8effe"/>
      <g id="Group_9537" data-name="Group 9537" transform="translate(27.98 21.862)">
        <path id="Path_1045" data-name="Path 1045" d="M269.38,231.457h-9.655a.811.811,0,1,1,0-1.621h9.655a.811.811,0,1,1,0,1.621Z" transform="translate(-258.914 -229.836)" fill="#c8effe"/>
      </g>
      <g id="Group_9538" data-name="Group 9538" transform="translate(16.022 31.838)">
        <path id="Path_1046" data-name="Path 1046" d="M150.324,323.774h-1.253a.811.811,0,1,1,0-1.621h1.253a.811.811,0,1,1,0,1.621Z" transform="translate(-148.26 -322.153)" fill="#c8effe"/>
      </g>
      <g id="Group_9539" data-name="Group 9539" transform="translate(34.826 31.838)">
        <path id="Path_1047" data-name="Path 1047" d="M324.33,323.774h-1.253a.811.811,0,1,1,0-1.621h1.253a.811.811,0,0,1,0,1.621Z" transform="translate(-322.266 -322.153)" fill="#c8effe"/>
      </g>
      <g id="Group_9540" data-name="Group 9540" transform="translate(20.181 31.838)">
        <path id="Path_1048" data-name="Path 1048" d="M199.145,323.774H187.558a.811.811,0,0,1,0-1.621h11.587a.811.811,0,1,1,0,1.621Z" transform="translate(-186.748 -322.153)" fill="#c8effe"/>
      </g>
    </g>
    <path id="Path_1049" data-name="Path 1049" d="M163.64,367.682v-3.413a.621.621,0,0,0-.621-.621H140.984a.621.621,0,0,0-.621.621v3.413Z" transform="translate(-125.195 -299.79)" fill="#c8effe"/>
  </g>
</svg>
