<svg xmlns="http://www.w3.org/2000/svg" width="56.086" height="54.333" viewBox="0 0 56.086 54.333">
  <g id="blood_donor" data-name="blood donor" transform="translate(0)">
    <path id="Path_1009" data-name="Path 1009" d="M197.431,16.431a8.216,8.216,0,1,1-16.431,0,8.518,8.518,0,0,1,1.085-4.108L189.216,0l7.131,12.323a8.518,8.518,0,0,1,1.085,4.108Zm0,0" transform="translate(-161.173)" fill="#ff5b5b"/>
    <path id="Path_1010" data-name="Path 1010" d="M295,75a3.3,3.3,0,0,0-3.286,3.286V93.074a4.919,4.919,0,0,1-1.441,3.478l-6.709,6.709-2.333-2.3,6.039-6.06a3.28,3.28,0,0,0-4.645-4.633L274.393,98.5A8.17,8.17,0,0,0,272,104.28v16.837h16.431v-9.344l7.065-9.99.559-.789a7.9,7.9,0,0,0,2.234-5.587V78.286A3.3,3.3,0,0,0,295,75Zm0,0" transform="translate(-242.204 -66.784)" fill="#ffbd86"/>
    <path id="Path_1011" data-name="Path 1011" d="M15.662,90.267A3.28,3.28,0,0,0,11.018,94.9l6.039,6.06-2.333,2.3L8.014,96.553a4.919,4.919,0,0,1-1.441-3.478V78.286a3.286,3.286,0,0,0-6.573,0V95.408a7.9,7.9,0,0,0,2.234,5.587l.559.789,7.065,9.99v9.344H26.291V104.281A8.172,8.172,0,0,0,23.9,98.5Zm0,0" transform="translate(0 -66.784)" fill="#fed2a4"/>
    <path id="Path_1012" data-name="Path 1012" d="M264.216,16.431A8.219,8.219,0,0,1,256,24.647V0l7.131,12.323a8.518,8.518,0,0,1,1.085,4.108Zm0,0" transform="translate(-227.957)" fill="#ff001e"/>
  </g>
</svg>
