<svg xmlns="http://www.w3.org/2000/svg" width="47.247" height="47.247" viewBox="0 0 47.247 47.247">
  <g id="blood-bank" transform="translate(0 0.001)">
    <path id="Path_1020" data-name="Path 1020" d="M144,222h20.763v17.533H144Z" transform="translate(-130.712 -201.514)" fill="#bfdfe7"/>
    <path id="Path_1021" data-name="Path 1021" d="M256,222h10.428v17.533H256Z" transform="translate(-232.376 -201.514)" fill="#93cbd8"/>
    <path id="Path_1022" data-name="Path 1022" d="M56.574,222v4.614A1.385,1.385,0,0,1,55.282,228v11.076a1.369,1.369,0,0,1-.079.461H47.056a1.369,1.369,0,0,1-.079-.461V228h-.092a1.385,1.385,0,0,1-1.384-1.384V222Z" transform="translate(-41.301 -201.514)" fill="#63c6f8"/>
    <path id="Path_1023" data-name="Path 1023" d="M356.574,222v4.614A1.385,1.385,0,0,1,355.282,228v11.076a1.369,1.369,0,0,1-.079.461h-8.146a1.369,1.369,0,0,1-.079-.461V228h-.092a1.385,1.385,0,0,1-1.384-1.384V222Z" transform="translate(-313.617 -201.514)" fill="#23a5f6"/>
    <path id="Path_1024" data-name="Path 1024" d="M46.271,409.822H43.41v-1.438A1.384,1.384,0,0,0,42.026,407H5.945a1.384,1.384,0,0,0-1.384,1.384V409.8H1.884A1.384,1.384,0,0,0,.5,411.18v4.125a1.384,1.384,0,0,0,1.384,1.384H46.271a1.384,1.384,0,0,0,1.384-1.384v-4.1A1.384,1.384,0,0,0,46.271,409.822Z" transform="translate(-0.454 -369.443)" fill="#e4edef"/>
    <path id="Path_1025" data-name="Path 1025" d="M279.578,411.206v4.1a1.385,1.385,0,0,1-1.384,1.384H256V407h17.948a1.385,1.385,0,0,1,1.384,1.384v1.438h2.861A1.384,1.384,0,0,1,279.578,411.206Z" transform="translate(-232.376 -369.443)" fill="#bfdfe7"/>
    <path id="Path_1026" data-name="Path 1026" d="M45.863,8.489h-5.25L24.255.151a1.384,1.384,0,0,0-1.26,0L6.743,8.489H1.384A1.384,1.384,0,0,0,0,9.873v9.689a1.384,1.384,0,0,0,1.384,1.384H45.863a1.384,1.384,0,0,0,1.384-1.384V9.873A1.384,1.384,0,0,0,45.863,8.489Z" transform="translate(0 0)" fill="#e4edef"/>
    <path id="Path_1027" data-name="Path 1027" d="M279.624,9.874v9.689a1.385,1.385,0,0,1-1.384,1.384H256V0a1.385,1.385,0,0,1,.631.151L272.989,8.49h5.251A1.385,1.385,0,0,1,279.624,9.874Z" transform="translate(-232.376 0)" fill="#bfdfe7"/>
    <path id="Path_1028" data-name="Path 1028" d="M217.421,79.692h-1.384V78.308a1.384,1.384,0,0,0-2.768,0v1.384h-1.384a1.384,1.384,0,1,0,0,2.768h1.384v1.384a1.384,1.384,0,0,0,2.768,0V82.461h1.384a1.384,1.384,0,1,0,0-2.768Z" transform="translate(-191.075 -69.826)" fill="#f26376"/>
    <path id="Path_1029" data-name="Path 1029" d="M260.106,81.082a1.384,1.384,0,0,1-1.384,1.384h-1.384V83.85A1.384,1.384,0,0,1,256,85.233v-8.3a1.384,1.384,0,0,1,1.338,1.383V79.7h1.384A1.385,1.385,0,0,1,260.106,81.082Z" transform="translate(-232.376 -69.831)" fill="#db375a"/>
    <path id="Path_1030" data-name="Path 1030" d="M214.7,257.021c-.5-.016-4.2,4.88-4.2,6.919a4.153,4.153,0,1,0,8.305,0C218.805,261.9,215.163,257.036,214.7,257.021Z" transform="translate(-191.075 -233.303)" fill="#db375a"/>
    <path id="Path_1031" data-name="Path 1031" d="M260.106,263.948A4.158,4.158,0,0,1,256,268.1V257.03C256.465,257.044,260.106,261.91,260.106,263.948Z" transform="translate(-232.376 -233.312)" fill="#b71c4c"/>
  </g>
</svg>
