<svg id="calendar" xmlns="http://www.w3.org/2000/svg" width="53.5" height="50.909" viewBox="0 0 53.5 50.909">
  <path id="Path_1102" data-name="Path 1102" d="M48.8,104.84a1.713,1.713,0,0,1,1.711-1.711V89.311a2.589,2.589,0,0,0-2.589-2.589H10.815a2.589,2.589,0,0,0-2.589,2.589V118.66a2.589,2.589,0,0,0,2.589,2.589H47.923a2.589,2.589,0,0,0,2.589-2.589V106.552A1.713,1.713,0,0,1,48.8,104.84Z" transform="translate(-7.366 -78.956)" fill="#eceaec"/>
  <path id="Path_1103" data-name="Path 1103" d="M47.422,45.432H9.455a2.586,2.586,0,0,0-.863.147l-.925,5.883,42.344-.853V48.021A2.589,2.589,0,0,0,47.422,45.432Z" transform="translate(-6.866 -41.98)" fill="#ffe07d"/>
  <path id="Path_1104" data-name="Path 1104" d="M2.589,142.561a.863.863,0,0,1-.863-.863V111.5H0v30.2a2.589,2.589,0,0,0,2.589,2.589H40.556a2.581,2.581,0,0,0,2.43-1.726H2.589Z" transform="translate(0 -101.141)" fill="#dad8db"/>
  <path id="Path_1105" data-name="Path 1105" d="M1.726,50.141v-3.3A2.6,2.6,0,0,0,0,49.278v4.314H43.145V51.867H3.452a1.726,1.726,0,0,1-1.726-1.726Z" transform="translate(0 -43.238)" fill="#ffd064"/>
  <path id="Path_1106" data-name="Path 1106" d="M43.016,17.577a1.726,1.726,0,0,1-1.726-1.726V14.126a1.726,1.726,0,1,1,3.452,0v1.726A1.726,1.726,0,0,1,43.016,17.577Z" transform="translate(-36.976 -12.4)" fill="#eceaec"/>
  <path id="Path_1107" data-name="Path 1107" d="M43.016,48.884a1.726,1.726,0,0,1-1.726-1.726V45.432h3.452v1.726A1.726,1.726,0,0,1,43.016,48.884Z" transform="translate(-36.976 -41.98)" fill="#dad8db"/>
  <path id="Path_1108" data-name="Path 1108" d="M340.307,17.577a1.726,1.726,0,0,1-1.726-1.726V14.126a1.726,1.726,0,0,1,3.452,0v1.726A1.726,1.726,0,0,1,340.307,17.577Z" transform="translate(-303.202 -12.4)" fill="#eceaec"/>
  <path id="Path_1109" data-name="Path 1109" d="M340.307,48.884a1.726,1.726,0,0,1-1.726-1.726V45.432h3.452v1.726A1.726,1.726,0,0,1,340.307,48.884Z" transform="translate(-303.202 -41.98)" fill="#dad8db"/>
  <path id="Path_1110" data-name="Path 1110" d="M404.645,276.633h1.726v3.452h-1.726Z" transform="translate(-362.363 -249.023)" fill="#ffd064"/>
  <ellipse id="Ellipse_135" data-name="Ellipse 135" cx="3.452" cy="3.452" rx="3.452" ry="3.452" transform="translate(39.694 44.005)" fill="#ffc250"/>
  <path id="Path_1111" data-name="Path 1111" d="M390.718,240.52a2.589,2.589,0,1,1,2.589-2.589A2.592,2.592,0,0,1,390.718,240.52Zm0-3.452a.863.863,0,1,0,.863.863A.864.864,0,0,0,390.718,237.069Z" transform="translate(-347.573 -212.047)" fill="#ffe07d"/>
  <path id="Path_1112" data-name="Path 1112" d="M386.605,316.65a1.79,1.79,0,0,0-1.795-1.436,1.633,1.633,0,0,1-1.633-1.633v-5.27a6.905,6.905,0,0,0-10.355-5.98L372,304.969v11.494l.871,1.515H384.9l1.726-1.038A1.8,1.8,0,0,0,386.605,316.65Z" transform="translate(-333.129 -271.209)" fill="#ffe07d"/>
  <path id="Path_1113" data-name="Path 1113" d="M320.71,321.4V310.246a6.907,6.907,0,0,0-3.452,5.98v5.27a1.624,1.624,0,0,1-1.62,1.634,1.791,1.791,0,0,0-1.808,1.436,1.727,1.727,0,0,0,1.7,2.016h17.258a1.727,1.727,0,0,0,1.726-1.726H324.162A3.451,3.451,0,0,1,320.71,321.4Z" transform="translate(-281.017 -279.123)" fill="#ffd064"/>
  <path id="Path_1114" data-name="Path 1114" d="M120.958,164.585a12.025,12.025,0,0,1-2.161,6.9c-2.183,3.133-5.812,4.653-9.919,4.653-6.672,0-11.378-4.878-11.378-11.55,0-4.107,1.347-7.735,4.479-9.918a12.082,12.082,0,0,1,18.98,9.918Z" transform="translate(-87.312 -137.864)" fill="#ffe07d"/>
  <path id="Path_1115" data-name="Path 1115" d="M105.874,192.178a12.083,12.083,0,0,1-9.92-18.979,12.081,12.081,0,1,0,16.819,16.815A12.03,12.03,0,0,1,105.874,192.178Z" transform="translate(-81.288 -156.398)" fill="#ffd064"/>
  <ellipse id="Ellipse_136" data-name="Ellipse 136" cx="10.355" cy="10.355" rx="10.355" ry="10.355" transform="translate(11.211 16.366)" fill="#fff"/>
  <ellipse id="Ellipse_137" data-name="Ellipse 137" cx="8.629" cy="8.629" rx="8.629" ry="8.629" transform="translate(12.937 18.091)" fill="#eceaec"/>
  <path id="Path_1116" data-name="Path 1116" d="M159.13,211.051l-6.441,2.147-5.054-5.053a.863.863,0,0,0-1.22,1.22l5.43,5.43a.864.864,0,0,0,.883.209l6.947-2.316a.863.863,0,0,0-.546-1.637Z" transform="translate(-130.889 -187.465)" fill="#ffc250"/>
  <ellipse id="Ellipse_138" data-name="Ellipse 138" cx="1.726" cy="1.726" rx="1.726" ry="1.726" transform="translate(19.84 24.995)" fill="#fff"/>
</svg>
