<svg xmlns="http://www.w3.org/2000/svg" width="71.082" height="57.126" viewBox="0 0 71.082 57.126">
  <g id="clinic" transform="translate(-76)">
    <path id="Path_1079" data-name="Path 1079" d="M-395.886,1926.226v17.49c0,.028,0,.057.024.35-.388,10.081,14.231,15.416,19.373-1.808,5.173-17.328,7.121-4.45,15.518,0s12.931,0,12.931,0" transform="translate(486 -1897.822)" fill="none" stroke="#6675ae" stroke-width="3"/>
    <path id="Path_1078" data-name="Path 1078" d="M-395.886,1926.226v17.49c0,.028,0,.057.024.35-.388,10.081,14.231,15.416,19.373-1.808,5.173-17.328,7.121-4.45,15.518,0s12.931,0,12.931,0" transform="translate(487 -1897.822)" fill="none" stroke="#47568c" stroke-width="1"/>
    <path id="Path_1074" data-name="Path 1074" d="M100.123,0H95.3V3.216h4.825a1.609,1.609,0,0,1,1.608,1.608v9.756a11.257,11.257,0,0,1-22.515,0V4.825a1.609,1.609,0,0,1,1.608-1.608h4.825V0H80.825A4.83,4.83,0,0,0,76,4.825v9.756a14.474,14.474,0,1,0,28.948,0V4.825A4.83,4.83,0,0,0,100.123,0Z" fill="#edf5ff"/>
    <path id="Path_1075" data-name="Path 1075" d="M225.474,14.581V4.825A4.83,4.83,0,0,0,220.649,0h-4.825V3.216h4.825a1.609,1.609,0,0,1,1.608,1.608v9.756A11.271,11.271,0,0,1,211,25.838v3.216A14.49,14.49,0,0,0,225.474,14.581Z" transform="translate(-120.526)" fill="#d5e8fe"/>
    <g id="Group_9584" data-name="Group 9584" transform="translate(25 7)">
      <path id="Path_1076" data-name="Path 1076" d="M294.041,287.082a8.041,8.041,0,1,1,8.041-8.041A8.05,8.05,0,0,1,294.041,287.082Z" transform="translate(-180 -241.822)" fill="#d5e8fe"/>
      <circle id="Ellipse_134" data-name="Ellipse 134" cx="4.5" cy="4.5" r="4.5" transform="translate(109 32.178)" fill="#5dacff"/>
      <path id="Path_1077" data-name="Path 1077" d="M346,331h3.216v3.216H346Z" transform="translate(-234 -295.822)" fill="#d5e8fe"/>
    </g>
  </g>
</svg>
