<svg xmlns="http://www.w3.org/2000/svg" width="30.6" height="22.6" viewBox="0 0 30.6 22.6">
  <path id="donations" d="M-346.3-1125a11.313,11.313,0,0,1-11.3-11.3,11.312,11.312,0,0,1,11.3-11.3,11.313,11.313,0,0,1,11.3,11.3A11.313,11.313,0,0,1-346.3-1125Zm0-21.334a10.045,10.045,0,0,0-10.033,10.033,10.045,10.045,0,0,0,10.033,10.033,10.045,10.045,0,0,0,10.033-10.033A10.045,10.045,0,0,0-346.3-1146.334Zm-12.686,20.3h0A11.341,11.341,0,0,1-365.6-1136.3a11.339,11.339,0,0,1,6.613-10.267v1.408a10.079,10.079,0,0,0-3.746,3.431,9.96,9.96,0,0,0-1.6,5.428,9.967,9.967,0,0,0,1.6,5.429,10.086,10.086,0,0,0,3.746,3.431v1.408Zm13.32-5.635h-1.267v-4h-4v-1.266h4v-4h1.267v4h4v1.266h-4v4Z" transform="translate(365.6 1147.6)" fill="#0db139"/>
</svg>
