<svg id="Eng" xmlns="http://www.w3.org/2000/svg" width="34.11" height="34.11" viewBox="0 0 34.11 34.11">
  <g id="Group_1079" data-name="Group 1079" transform="translate(0.07)">
    <rect id="Rectangle_592" data-name="Rectangle 592" width="33.957" height="0.001" transform="translate(0.006 18.65)" fill="#c42126"/>
    <rect id="Rectangle_593" data-name="Rectangle 593" width="30.419" height="0.001" transform="translate(1.775 9.34)" fill="#c42126"/>
    <rect id="Rectangle_594" data-name="Rectangle 594" width="32.837" height="0.001" transform="translate(0.566 12.443)" fill="#c42126"/>
    <path id="Path_894" data-name="Path 894" d="M101.779,431.346h0Z" transform="translate(-94.519 -400.283)" fill="#c42126"/>
    <path id="Path_895" data-name="Path 895" d="M223.986,0c-.335,0-.667.012-1,.031h1.995C224.653.012,224.321,0,223.986,0Z" transform="translate(-207.002 0)" fill="#c42126"/>
    <rect id="Rectangle_595" data-name="Rectangle 595" width="33.968" height="0.001" transform="translate(0 15.546)" fill="#c42126"/>
  </g>
  <path id="Path_896" data-name="Path 896" d="M289.975,46.628h8.144a17.14,17.14,0,0,0-3.337-3.1h-6.115A16.212,16.212,0,0,1,289.975,46.628Z" transform="translate(-267.88 -40.391)" fill="#e7e7e7"/>
  <path id="Path_897" data-name="Path 897" d="M246.656,3.533h6.115a16.961,16.961,0,0,0-8.85-3.1H243.4C244.943.625,245.654,1.77,246.656,3.533Z" transform="translate(-225.869 -0.399)" fill="#dc3027"/>
  <path id="Path_898" data-name="Path 898" d="M328.519,132.813a16.945,16.945,0,0,0-1.21-3.1H317.94c.19,1,.34,2.037.451,3.1Z" transform="translate(-295.045 -120.369)" fill="#e7e7e7"/>
  <path id="Path_899" data-name="Path 899" d="M300.659,89.715h9.9a17.065,17.065,0,0,0-2.025-3.1h-8.644A27.381,27.381,0,0,1,300.659,89.715Z" transform="translate(-278.291 -80.375)" fill="#dc3027"/>
  <path id="Path_900" data-name="Path 900" d="M329.178,219h10.329c.049-.525.077-1.057.077-1.594,0-.509-.027-1.011-.07-1.509H329.18C329.214,216.925,329.213,217.964,329.178,219Z" transform="translate(-305.474 -200.346)" fill="#e7e7e7"/>
  <path id="Path_901" data-name="Path 901" d="M329.283,175.9a16.985,16.985,0,0,0-.566-3.1H318.154c.106,1.016.176,2.055.21,3.1Z" transform="translate(-295.244 -160.358)" fill="#dc3027"/>
  <path id="Path_902" data-name="Path 902" d="M315.465,305.178h9.5a16.917,16.917,0,0,0,1.23-3.1H315.924C315.811,303.142,315.658,304.183,315.465,305.178Z" transform="translate(-292.748 -280.322)" fill="#e7e7e7"/>
  <path id="Path_903" data-name="Path 903" d="M331.983,262.09a16.945,16.945,0,0,0,.584-3.1H321.916c-.036,1.048-.109,2.087-.217,3.1Z" transform="translate(-298.533 -240.338)" fill="#dc3027"/>
  <path id="Path_904" data-name="Path 904" d="M295.24,391.363a17.154,17.154,0,0,0,3.386-3.1h-8a15.845,15.845,0,0,1-1.333,3.1Z" transform="translate(-268.459 -360.302)" fill="#e7e7e7"/>
  <g id="Group_1080" data-name="Group 1080" transform="translate(16.333 24.856)">
    <path id="Path_905" data-name="Path 905" d="M303.625,348.27h8.3a17.078,17.078,0,0,0,2.052-3.1h-9.572A27.019,27.019,0,0,1,303.625,348.27Z" transform="translate(-298.094 -345.167)" fill="#dc3027"/>
    <path id="Path_906" data-name="Path 906" d="M226.921,473.461l-.1,0Z" transform="translate(-226.818 -464.219)" fill="#dc3027"/>
    <path id="Path_907" data-name="Path 907" d="M236.837,434.407a16.975,16.975,0,0,0,9.725-3.047H240.39C239.294,433.247,238.571,434.407,236.837,434.407Z" transform="translate(-236.116 -425.153)" fill="#dc3027"/>
  </g>
  <path id="Path_908" data-name="Path 908" d="M228.873,473.521c-.207,0-.413,0-.618-.012C228.462,473.516,228.668,473.521,228.873,473.521Z" transform="translate(-211.818 -439.411)" fill="#c42126"/>
  <path id="Path_909" data-name="Path 909" d="M71.228,43.525H57.084a17.142,17.142,0,0,0-3.337,3.1h18.79A16.213,16.213,0,0,0,71.228,43.525Z" transform="translate(-49.877 -40.391)" fill="#f3f4f5"/>
  <path id="Path_910" data-name="Path 910" d="M100.092,3.533h14.144c-1-1.764-2.278-2.909-3.825-3.1h-1.47A16.959,16.959,0,0,0,100.092,3.533Z" transform="translate(-92.884 -0.399)" fill="#e73625"/>
  <path id="Path_911" data-name="Path 911" d="M8.835,132.813H32.082c-.111-1.066-.261-2.106-.45-3.1H10.045A16.94,16.94,0,0,0,8.835,132.813Z" transform="translate(-8.199 -120.369)" fill="#f3f4f5"/>
  <path id="Path_912" data-name="Path 912" d="M27.661,86.609a17.077,17.077,0,0,0-2.024,3.1H47.224a27.348,27.348,0,0,0-.773-3.1Z" transform="translate(-23.791 -80.372)" fill="#e73625"/>
  <path id="Path_913" data-name="Path 913" d="M0,217.4c0,.537.028,1.069.077,1.594H24.094c.036-1.031.036-2.071,0-3.1H.072C.029,216.393,0,216.9,0,217.4Z" transform="translate(-0.002 -200.349)" fill="#f3f4f5"/>
  <path id="Path_914" data-name="Path 914" d="M.978,175.9H25c-.034-1.047-.1-2.086-.21-3.1H1.544A16.965,16.965,0,0,0,.978,175.9Z" transform="translate(-0.908 -160.358)" fill="#e73625"/>
  <path id="Path_915" data-name="Path 915" d="M32.389,302.072H9.175a16.929,16.929,0,0,0,1.23,3.1H31.93C32.123,304.18,32.276,303.14,32.389,302.072Z" transform="translate(-8.514 -280.32)" fill="#f3f4f5"/>
  <path id="Path_916" data-name="Path 916" d="M1.652,262.09H24.866c.108-1.016.18-2.055.217-3.1H1.068A16.97,16.97,0,0,0,1.652,262.09Z" transform="translate(-0.991 -240.338)" fill="#e73625"/>
  <path id="Path_917" data-name="Path 917" d="M58.139,391.363H72.11a15.843,15.843,0,0,0,1.333-3.1H54.753A17.146,17.146,0,0,0,58.139,391.363Z" transform="translate(-50.81 -360.302)" fill="#f3f4f5"/>
  <g id="Group_1081" data-name="Group 1081" transform="translate(1.89 24.856)">
    <path id="Path_918" data-name="Path 918" d="M26.254,345.166a17.084,17.084,0,0,0,2.052,3.1H47a27.054,27.054,0,0,0,.783-3.1Z" transform="translate(-26.254 -345.166)" fill="#e73625"/>
    <path id="Path_919" data-name="Path 919" d="M110.8,434.39l.1,0c.205.007.411.012.618.012,1.735,0,3.149-1.16,4.245-3.047H101.793A16.965,16.965,0,0,0,110.8,434.39Z" transform="translate(-96.353 -425.152)" fill="#e73625"/>
  </g>
  <path id="Path_920" data-name="Path 920" d="M17.638.123A17.05,17.05,0,0,0,1.008,15.632h16.63V.123Z" transform="translate(-0.936 -0.114)" fill="#283991"/>
  <g id="Group_1082" data-name="Group 1082" transform="translate(0.574 1.182)">
    <path id="Path_921" data-name="Path 921" d="M33.193,134.187l.26.8h.842l-.681.495.26.8-.681-.495-.681.495.26-.8-.681-.495h.842Z" transform="translate(-30.354 -125.706)" fill="#efefef"/>
    <path id="Path_922" data-name="Path 922" d="M33.193,173.438l.26.8h.842l-.681.495.26.8-.681-.495-.681.495.26-.8-.681-.495h.842Z" transform="translate(-30.354 -162.13)" fill="#efefef"/>
    <path id="Path_923" data-name="Path 923" d="M72.447,75.3l.26.8h.842l-.681.5.26.8-.681-.494-.681.494.26-.8-.681-.5h.842Z" transform="translate(-66.781 -71.056)" fill="#efefef"/>
    <path id="Path_924" data-name="Path 924" d="M72.447,114.554l.26.8h.842l-.681.494.26.8-.681-.494-.681.494.26-.8-.681-.494h.842Z" transform="translate(-66.781 -107.487)" fill="#efefef"/>
    <path id="Path_925" data-name="Path 925" d="M72.447,153.812l.26.8h.842l-.681.494.26.8-.681-.495-.681.495.26-.8-.681-.494h.842Z" transform="translate(-66.781 -143.918)" fill="#efefef"/>
    <path id="Path_926" data-name="Path 926" d="M8.663,165.468l-.26-.8.681-.494H8.243l-.019-.058c-.092.286-.176.575-.253.867l.012-.009Z" transform="translate(-7.971 -153.479)" fill="#efefef"/>
    <path id="Path_927" data-name="Path 927" d="M37.177,97.022l.681-.495.681.495-.26-.8.681-.495h-.842l-.26-.8-.26.8h-.31c-.058.087-.113.175-.169.264l.319.231Z" transform="translate(-35.019 -89.272)" fill="#efefef"/>
    <path id="Path_928" data-name="Path 928" d="M77.867,47.954l.68.494-.26-.8.681-.495h-.486q-.619.463-1.194.98l-.1.315Z" transform="translate(-72.202 -44.939)" fill="#efefef"/>
    <path id="Path_929" data-name="Path 929" d="M116.452,27.434l.681-.495.68.495-.26-.8.681-.494h-.842l-.035-.108c-.285.146-.567.3-.843.459l.2.144Z" transform="translate(-108.64 -25.338)" fill="#efefef"/>
    <path id="Path_930" data-name="Path 930" d="M111.706,55.671l.26.8h.842l-.681.495.26.8-.681-.5-.681.5.26-.8-.681-.495h.842Z" transform="translate(-103.213 -52.844)" fill="#efefef"/>
    <path id="Path_931" data-name="Path 931" d="M111.706,94.929l.26.8h.842l-.681.495.26.8-.681-.5-.681.5.26-.8-.681-.495h.842Z" transform="translate(-103.213 -89.275)" fill="#efefef"/>
    <path id="Path_932" data-name="Path 932" d="M111.706,134.187l.26.8h.842l-.681.495.26.8-.681-.495-.681.495.26-.8-.681-.495h.842Z" transform="translate(-103.213 -125.706)" fill="#efefef"/>
    <path id="Path_933" data-name="Path 933" d="M111.706,173.438l.26.8h.842l-.681.495.26.8-.681-.495-.681.495.26-.8-.681-.495h.842Z" transform="translate(-103.213 -162.13)" fill="#efefef"/>
    <path id="Path_934" data-name="Path 934" d="M150.964,36.038l.26.8h.842l-.68.495.26.8-.681-.494-.681.494.26-.8-.681-.495h.842Z" transform="translate(-139.644 -34.625)" fill="#efefef"/>
    <path id="Path_935" data-name="Path 935" d="M150.964,75.3l.26.8h.842l-.68.5.26.8-.681-.494-.681.494.26-.8-.681-.5h.842Z" transform="translate(-139.644 -71.056)" fill="#efefef"/>
    <path id="Path_936" data-name="Path 936" d="M150.964,114.554l.26.8h.842l-.68.494.26.8-.681-.494-.681.494.26-.8-.681-.494h.842Z" transform="translate(-139.644 -107.487)" fill="#efefef"/>
    <path id="Path_937" data-name="Path 937" d="M150.964,153.812l.26.8h.842l-.68.494.26.8-.681-.495-.681.495.26-.8-.681-.494h.842Z" transform="translate(-139.644 -143.918)" fill="#efefef"/>
    <path id="Path_938" data-name="Path 938" d="M190.222,16.413l.26.8h.842l-.681.494.26.8-.68-.5-.681.5.26-.8-.681-.494h.842Z" transform="translate(-176.075 -16.413)" fill="#efefef"/>
    <path id="Path_939" data-name="Path 939" d="M190.222,55.671l.26.8h.842l-.681.495.26.8-.68-.5-.681.5.26-.8-.681-.495h.842Z" transform="translate(-176.075 -52.844)" fill="#efefef"/>
    <path id="Path_940" data-name="Path 940" d="M190.222,94.929l.26.8h.842l-.681.495.26.8-.68-.5-.681.5.26-.8-.681-.495h.842Z" transform="translate(-176.075 -89.275)" fill="#efefef"/>
    <path id="Path_941" data-name="Path 941" d="M190.222,134.187l.26.8h.842l-.681.495.26.8-.68-.495-.681.495.26-.8-.681-.495h.842Z" transform="translate(-176.075 -125.706)" fill="#efefef"/>
    <path id="Path_942" data-name="Path 942" d="M190.222,173.438l.26.8h.842l-.681.495.26.8-.68-.495-.681.495.26-.8-.681-.495h.842Z" transform="translate(-176.075 -162.13)" fill="#efefef"/>
  </g>
</svg>
