<svg xmlns="http://www.w3.org/2000/svg" width="25.5" height="21.501" viewBox="0 0 25.5 21.501">
  <path id="filter" d="M-135.9-1187.5h-6.354a.751.751,0,0,1-.75-.75.751.751,0,0,1,.75-.75h6.355a2.754,2.754,0,0,1,2.645-2,2.755,2.755,0,0,1,2.646,2h12.353a.751.751,0,0,1,.751.75.751.751,0,0,1-.751.75H-130.6a2.756,2.756,0,0,1-2.647,2A2.754,2.754,0,0,1-135.9-1187.5Zm1.4-.75a1.251,1.251,0,0,0,1.25,1.25,1.251,1.251,0,0,0,1.25-1.25,1.251,1.251,0,0,0-1.25-1.25A1.251,1.251,0,0,0-134.5-1188.249Zm8.6-7.25H-142.25a.751.751,0,0,1-.75-.75.751.751,0,0,1,.75-.751H-125.9a2.754,2.754,0,0,1,2.645-2,2.755,2.755,0,0,1,2.646,2h2.353a.751.751,0,0,1,.751.751.751.751,0,0,1-.751.75H-120.6a2.756,2.756,0,0,1-2.647,2A2.754,2.754,0,0,1-125.9-1195.5Zm1.4-.75a1.251,1.251,0,0,0,1.25,1.25,1.251,1.251,0,0,0,1.25-1.25,1.251,1.251,0,0,0-1.25-1.25A1.251,1.251,0,0,0-124.5-1196.249Zm-15.4-7.25h-2.354a.75.75,0,0,1-.75-.75.751.751,0,0,1,.75-.751h2.354a2.755,2.755,0,0,1,2.645-2,2.755,2.755,0,0,1,2.646,2h16.354a.751.751,0,0,1,.75.751.75.75,0,0,1-.75.75H-134.6a2.755,2.755,0,0,1-2.647,2A2.755,2.755,0,0,1-139.9-1203.5Zm2.646.5a1.251,1.251,0,0,0,1.25-1.25,1.251,1.251,0,0,0-1.25-1.25,1.252,1.252,0,0,0-1.25,1.223c0,.009,0,.018,0,.027s0,.018,0,.027A1.252,1.252,0,0,0-137.251-1203Z" transform="translate(143 1207)" fill="#008fcb"/>
</svg>
