<svg id="Google" xmlns="http://www.w3.org/2000/svg" width="25.13" height="25.13" viewBox="0 0 25.13 25.13">
  <path id="Path_229" data-name="Path 229" d="M5.569,146.668l-.875,3.265L1.5,150A12.587,12.587,0,0,1,1.4,138.268h0l2.846.522L5.5,141.619a7.5,7.5,0,0,0,.07,5.049Z" transform="translate(0 -131.482)" fill="#fbbb00"/>
  <path id="Path_230" data-name="Path 230" d="M273.7,208.176a12.56,12.56,0,0,1-4.479,12.146h0l-3.585-.183-.507-3.167a7.489,7.489,0,0,0,3.222-3.824h-6.719v-4.971H273.7Z" transform="translate(-248.787 -197.958)" fill="#518ef8"/>
  <path id="Path_231" data-name="Path 231" d="M49.442,316.586h0a12.569,12.569,0,0,1-18.934-3.844l4.072-3.333a7.473,7.473,0,0,0,10.769,3.826Z" transform="translate(-29.012 -294.223)" fill="#28b446"/>
  <path id="Path_232" data-name="Path 232" d="M47.8,2.893,43.734,6.225a7.472,7.472,0,0,0-11.016,3.912L28.625,6.786h0A12.568,12.568,0,0,1,47.8,2.893Z" transform="translate(-27.219)" fill="#f14336"/>
</svg>
