<svg xmlns="http://www.w3.org/2000/svg" width="405.796" height="579.566" viewBox="0 0 405.796 579.566">
  <path id="Heart_Shape" d="M1851.3-659a170.754,170.754,0,0,0-21.367-33.787A366.567,366.567,0,0,0,1802.7-723.3c-9.615-9.809-19.764-19.618-29.379-28.882-10.148-9.809-20.3-19.074-29.912-29.427-19.764-20.709-38.993-41.962-52.347-67.029,18.695,21.253,39.527,39.236,60.359,57.219s42.2,35.968,62.5,56.13c9.615,10.354,19.229,20.708,27.776,32.7s16.026,24.523,20.832,38.147c5.341,13.624,7.478,28.883,6.944,43.6-1.068,14.714-4.808,28.883-11.751,41.417C1865.192-606.682,1863.055-635.019,1851.3-659Zm49.676,3.815a100.729,100.729,0,0,0-13.888-40.326c-13.888-25.068-35.254-45.231-56.62-64.849-21.9-19.618-44.869-38.692-67.3-59.4-21.9-21.253-44.335-44.141-59.291-74.658a121.948,121.948,0,0,1-12.82-50.135,125.374,125.374,0,0,1,9.08-50.681c12.82-31.607,35.254-58.31,65.167-73.569a107.564,107.564,0,0,1,48.073-11.443c16.558,0,32.049,4.36,46.472,10.354,28.309,13.079,51.812,34.877,67.837,60.49-21.367-21.253-46.471-37.6-73.714-45.231a114.865,114.865,0,0,0-40.6-4.36c-13.354,1.635-25.639,5.449-36.857,12.534-22.434,13.623-40.062,36.512-48.608,61.579a105.373,105.373,0,0,0-5.875,38.147c.534,12.533,4.273,25.068,10.148,37.057a171.592,171.592,0,0,0,22.434,34.331,399.778,399.778,0,0,0,28.845,32.152c20.3,20.708,42.732,41.416,64.1,63.759a314.862,314.862,0,0,1,29.912,35.422c9.081,12.534,17.627,26.158,23.5,41.416a117.562,117.562,0,0,1,8.546,46.866,99.709,99.709,0,0,1-1.068,11.989,85.917,85.917,0,0,1-2.137,11.444,92.7,92.7,0,0,1-8.546,21.253A103.921,103.921,0,0,0,1900.979-655.182Zm167.189-431.057c-11.75-21.253-33.117-35.967-55.552-39.781a56.319,56.319,0,0,0-16.558-.545c-5.341,0-10.683,2.18-16.024,3.815a81.515,81.515,0,0,0-29.379,20.163c-17.627,18.528-29.379,43.6-34.72,72.479-8.012-28.337-2.67-61.58,14.956-88.827a101.54,101.54,0,0,1,36.857-32.152c15.491-7.085,33.117-9.809,50.21-6.539,33.652,5.449,61.962,29.972,73.179,61.579a90.315,90.315,0,0,1,4.273,47.411,129.226,129.226,0,0,1-6.41,21.8c-3.2,7.084-6.41,13.623-11.218,19.073C2083.126-1036.648,2080.454-1064.985,2068.168-1086.239Z" transform="translate(-1691 1159)" fill="#4fa0ca" opacity="0.15"/>
</svg>
