<svg xmlns="http://www.w3.org/2000/svg" width="54.836" height="47.215" viewBox="0 0 54.836 47.215">
  <g id="medicine" transform="translate(0 -34.533)">
    <path id="Path_1080" data-name="Path 1080" d="M317.152,279.625a17.885,17.885,0,0,0,17.533-14.364l-19.74-2.207Z" transform="translate(-280.196 -203.307)" fill="#00ccb3"/>
    <path id="Path_1081" data-name="Path 1081" d="M176.033,265.26a17.885,17.885,0,0,0,17.533,14.364V263.053Z" transform="translate(-156.611 -203.307)" fill="#00ee8a"/>
    <path id="Path_1082" data-name="Path 1082" d="M334.685,103.495a17.885,17.885,0,0,0-17.533-14.364L314.945,105.7Z" transform="translate(-280.196 -48.574)" fill="#00ccb3"/>
    <path id="Path_1083" data-name="Path 1083" d="M193.566,89.132A17.885,17.885,0,0,0,176.033,103.5l17.533,2.207Z" transform="translate(-156.611 -48.575)" fill="#00ee8a"/>
    <path id="Path_1084" data-name="Path 1084" d="M334.685,219.316H317.152l-2.207,3.516,2.207,3.516h17.533a18.011,18.011,0,0,0,0-7.032Z" transform="translate(-280.196 -164.395)" fill="#00969b"/>
    <path id="Path_1085" data-name="Path 1085" d="M190.772,219.316H173.239a18.01,18.01,0,0,0,0,7.032h17.533Z" transform="translate(-153.816 -164.395)" fill="#00ccb3"/>
    <path id="Path_1086" data-name="Path 1086" d="M116.27,41.43,102.5,65.435l13.511,2.654,5.651-13.642A9.963,9.963,0,0,0,116.27,41.43Z" transform="translate(-91.191 -6.136)" fill="#e1ebf0"/>
    <path id="Path_1087" data-name="Path 1087" d="M76.781,35.294a9.963,9.963,0,0,0-13.017,5.392L58.113,54.328l7.534,7.845Z" transform="translate(-51.701)" fill="#fff5f5"/>
    <path id="Path_1088" data-name="Path 1088" d="M55.765,271.347a9.963,9.963,0,0,0,13.017-5.392l5.651-13.642-9.2-3.813-6.4,7.723Z" transform="translate(-49.612 -190.359)" fill="#e50058"/>
    <path id="Path_1089" data-name="Path 1089" d="M6.412,213.945.761,227.587A9.963,9.963,0,0,0,6.153,240.6l9.463-22.847Z" transform="translate(0 -159.617)" fill="#ff415b"/>
  </g>
</svg>
