<svg xmlns="http://www.w3.org/2000/svg" width="30.322" height="30.321" viewBox="0 0 30.322 30.321">
  <path id="near_by" d="M148.722-1130.112a.5.5,0,0,1-.242-.672.505.505,0,0,1,.672-.242,14.153,14.153,0,0,0,13.766-.979,2.946,2.946,0,0,1-.43-1.538,2.971,2.971,0,0,1,4.506-2.538,14.149,14.149,0,0,0,0-15.515,2.971,2.971,0,0,1-4.506-2.538,2.971,2.971,0,0,1,2.968-2.968,2.971,2.971,0,0,1,2.306,4.836,15.155,15.155,0,0,1,0,16.856,2.955,2.955,0,0,1,.662,1.868,2.971,2.971,0,0,1-4.836,2.3,15.121,15.121,0,0,1-8.429,2.56A15.139,15.139,0,0,1,148.722-1130.112Zm14.775-3.432a1.96,1.96,0,0,0,1.958,1.958,1.96,1.96,0,0,0,1.958-1.958,1.96,1.96,0,0,0-1.958-1.958A1.96,1.96,0,0,0,163.5-1133.544Zm0-20.591a1.96,1.96,0,0,0,1.958,1.958,1.96,1.96,0,0,0,1.958-1.958,1.96,1.96,0,0,0-1.958-1.957A1.96,1.96,0,0,0,163.5-1154.135Zm-20.938,18.724a15.152,15.152,0,0,1,0-16.856,2.971,2.971,0,0,1,2.306-4.836,2.954,2.954,0,0,1,1.867.662,15.163,15.163,0,0,1,14.669-1.217.506.506,0,0,1,.253.669.506.506,0,0,1-.669.252,14.155,14.155,0,0,0-13.582,1.064,2.955,2.955,0,0,1,.43,1.538,2.972,2.972,0,0,1-4.507,2.538,14.149,14.149,0,0,0,0,15.515,2.972,2.972,0,0,1,4.507,2.538,2.972,2.972,0,0,1-2.968,2.968A2.971,2.971,0,0,1,142.56-1135.411Zm.347,1.868a1.96,1.96,0,0,0,1.958,1.958,1.96,1.96,0,0,0,1.958-1.958,1.96,1.96,0,0,0-1.958-1.958A1.96,1.96,0,0,0,142.907-1133.544Zm0-20.591a1.96,1.96,0,0,0,1.958,1.958,1.96,1.96,0,0,0,1.958-1.958,1.96,1.96,0,0,0-1.958-1.957A1.96,1.96,0,0,0,142.907-1154.135Zm3.916,10.3a8.347,8.347,0,0,1,8.338-8.338,8.346,8.346,0,0,1,8.337,8.338.5.5,0,0,1-.5.5.5.5,0,0,1-.5-.5,7.335,7.335,0,0,0-7.327-7.327,7.335,7.335,0,0,0-7.327,7.327,7.335,7.335,0,0,0,7.327,7.326,7.365,7.365,0,0,0,6.856-4.738.5.5,0,0,1,.651-.293.5.5,0,0,1,.294.651,8.334,8.334,0,0,1-7.8,5.391A8.347,8.347,0,0,1,146.823-1143.839Zm5.177-.521a3,3,0,0,1,3-3,3,3,0,0,1,3,3,3,3,0,0,1-3,3A3,3,0,0,1,152-1144.36Zm1,0a2,2,0,0,0,2,2,2,2,0,0,0,2-2,2,2,0,0,0-2-2A2,2,0,0,0,153-1144.36Z" transform="translate(-140 1159)" fill="#fd1916"/>
</svg>
