<svg xmlns="http://www.w3.org/2000/svg" width="28.715" height="33.195" viewBox="0 0 28.715 33.195">
  <path id="notification" d="M658.027-1127.723a.85.85,0,0,1,.309-1.162.85.85,0,0,1,1.162.309,2.156,2.156,0,0,0,1.859,1.071,2.157,2.157,0,0,0,1.86-1.071.849.849,0,0,1,1.161-.309.851.851,0,0,1,.31,1.162,3.864,3.864,0,0,1-3.331,1.918A3.862,3.862,0,0,1,658.027-1127.723Zm-10.17-5.576a.854.854,0,0,1-.822-.607.84.84,0,0,1,.347-.949,7.926,7.926,0,0,0,2.047-2.642c.948-1.787,2.077-5,2.077-10.153a9.866,9.866,0,0,1,6.438-9.24.852.852,0,0,1,.082-.192,3.863,3.863,0,0,1,3.33-1.918,3.864,3.864,0,0,1,3.331,1.918.855.855,0,0,1,.082.192,9.867,9.867,0,0,1,6.438,9.24c0,5.154,1.13,8.365,2.077,10.153a7.9,7.9,0,0,0,2.047,2.642.843.843,0,0,1,.347.949.855.855,0,0,1-.823.607Zm5.35-14.35c0,6.937-1.92,10.762-3.352,12.65h23c-1.433-1.888-3.352-5.713-3.352-12.65a8.159,8.159,0,0,0-8.15-8.15A8.159,8.159,0,0,0,653.207-1147.65Z" transform="translate(-647 1159)" fill="#575757"/>
</svg>
