<svg xmlns="http://www.w3.org/2000/svg" width="33.886" height="33.886" viewBox="0 0 33.886 33.886">
  <path id="profile" d="M16.193-.187A16.944,16.944,0,0,1,28.174,28.737,16.944,16.944,0,0,1,4.212,4.774,16.833,16.833,0,0,1,16.193-.187Zm0,32.386A15.443,15.443,0,1,0,.75,16.755,15.46,15.46,0,0,0,16.193,32.2Zm0-26.118a6.5,6.5,0,1,1-6.5,6.5A6.5,6.5,0,0,1,16.193,6.081Zm0,11.492a5,5,0,1,0-5-5A5,5,0,0,0,16.193,17.572Zm-3.134,2.612a2.343,2.343,0,0,1,.682.1l.012,0a7.393,7.393,0,0,0,4.878,0l.014,0a2.343,2.343,0,0,1,.682-.1,8.035,8.035,0,0,1,7.094,4.3l.238.449-.328.388a13.25,13.25,0,0,1-20.276,0l-.328-.388.238-.449A8.035,8.035,0,0,1,13.059,20.184Zm.24,1.538a.843.843,0,0,0-.24-.038,6.524,6.524,0,0,0-5.512,3.063,11.746,11.746,0,0,0,17.291,0,6.524,6.524,0,0,0-5.512-3.063.842.842,0,0,0-.239.038,8.885,8.885,0,0,1-5.789,0Z" transform="translate(0.75 0.188)" fill="#575757"/>
</svg>
