<svg xmlns="http://www.w3.org/2000/svg" width="53.614" height="53.348" viewBox="0 0 53.614 53.348">
  <g id="Requests" transform="translate(-3 -3.288)">
    <path id="Path_1013" data-name="Path 1013" d="M18.849,37.319v-7.4a.924.924,0,0,0-1.849,0v7.4a.924.924,0,0,0,1.849,0Z" transform="translate(-1.059 -1.944)" fill="#ffbd86"/>
    <path id="Path_1014" data-name="Path 1014" d="M14.849,31.924a.924.924,0,0,0-1.849,0v5.546a.924.924,0,0,0,1.849,0Z" transform="translate(-0.756 -2.095)" fill="#ffbd86"/>
    <path id="Path_1015" data-name="Path 1015" d="M22.849,37.319v-7.4a.924.924,0,0,0-1.849,0v7.4a.924.924,0,1,0,1.849,0Z" transform="translate(-1.361 -1.944)" fill="#ffbd86"/>
    <path id="Path_1016" data-name="Path 1016" d="M25.924,19a.925.925,0,0,0-.924.924V30.093h1.849V19.924A.925.925,0,0,0,25.924,19Z" transform="translate(-1.664 -1.188)" fill="#ffbd86"/>
    <path id="Path_1017" data-name="Path 1017" d="M47.017,5A12.017,12.017,0,1,0,59.034,17.017,12.031,12.031,0,0,0,47.017,5Zm7.4,12.941a.927.927,0,0,1-.924.924H48.866v4.622a.927.927,0,0,1-.924.924H46.093a.927.927,0,0,1-.924-.924V18.866H40.546a.927.927,0,0,1-.924-.924V16.093a.927.927,0,0,1,.924-.924h4.622V10.546a.927.927,0,0,1,.924-.924h1.849a.927.927,0,0,1,.924.924v4.622h4.622a.927.927,0,0,1,.924.924Z" transform="translate(-2.42 -0.129)" fill="#ff5b5b"/>
    <path id="Path_1018" data-name="Path 1018" d="M31.639,41.823V34.849A1.851,1.851,0,0,0,29.79,33H24.244a2.463,2.463,0,0,0,1.976,2.41l3.256.652L28.71,37.21a15.867,15.867,0,0,0-2.366,5.71l-.271,1.354-1.813-.363.271-1.354a17.7,17.7,0,0,1,1.928-5.214l-.6-.121a4.251,4.251,0,0,1-1.613-.707v1.107a2.761,2.761,0,0,1-4.622,2.052,2.731,2.731,0,0,1-3.7,0,2.747,2.747,0,0,1-.924.551v2.384A10.058,10.058,0,0,0,16.693,48.2l.155.232v9.6a18.463,18.463,0,0,0,11.093,0V48.39l2.482-3.1A5.565,5.565,0,0,0,31.639,41.823ZM19.67,47.158a4.948,4.948,0,0,0-3.113-3.113l.585-1.753a6.8,6.8,0,0,1,4.282,4.282Z" transform="translate(-0.907 -2.247)" fill="#fed2a4"/>
    <path id="Path_1019" data-name="Path 1019" d="M30.732,16.888c0-.364.027-.721.055-1.079a98.329,98.329,0,0,0-9.3-12.521C18.5,6.382,3,26.44,3,38.148A18.508,18.508,0,0,0,14.093,55.082V46.742a11.887,11.887,0,0,1-1.849-6.379V37.978a2.769,2.769,0,0,1-1.849-2.6V29.829a2.764,2.764,0,0,1,3.8-2.57,2.749,2.749,0,0,1,4.515-1.331,2.751,2.751,0,0,1,1.849-.721,2.781,2.781,0,0,1,.924.158V18.736a2.773,2.773,0,0,1,5.546,0V28.9h1.849a3.7,3.7,0,0,1,3.7,3.7v6.974A7.422,7.422,0,0,1,30.96,44.2l-2.077,2.6v8.29A18.508,18.508,0,0,0,39.975,38.148a25.8,25.8,0,0,0-2.188-9.2A13.866,13.866,0,0,1,30.732,16.888Z" fill="#ff001e"/>
  </g>
</svg>
