<svg xmlns="http://www.w3.org/2000/svg" width="25.664" height="25.665" viewBox="0 0 25.664 25.665">
  <path id="share" d="M-715.106-1194.228a5.165,5.165,0,0,1,.179-1.322l-4.874-2.438a5.56,5.56,0,0,1-4.3,2.044,5.564,5.564,0,0,1-5.557-5.558,5.564,5.564,0,0,1,5.557-5.557,5.56,5.56,0,0,1,4.3,2.043l4.874-2.437a5.164,5.164,0,0,1-.179-1.322,5.564,5.564,0,0,1,5.557-5.558,5.564,5.564,0,0,1,5.558,5.558,5.565,5.565,0,0,1-5.558,5.558,5.56,5.56,0,0,1-4.295-2.044l-4.874,2.437a5.165,5.165,0,0,1,.179,1.322,5.159,5.159,0,0,1-.179,1.322l4.874,2.438a5.56,5.56,0,0,1,4.295-2.044,5.565,5.565,0,0,1,5.558,5.558,5.565,5.565,0,0,1-5.558,5.558A5.564,5.564,0,0,1-715.106-1194.228Zm2.445,0a3.116,3.116,0,0,0,3.112,3.113,3.116,3.116,0,0,0,3.113-3.113,3.116,3.116,0,0,0-3.113-3.113A3.116,3.116,0,0,0-712.661-1194.228Zm-14.549-7.275a3.116,3.116,0,0,0,3.113,3.113,3.116,3.116,0,0,0,3.113-3.113,3.116,3.116,0,0,0-3.113-3.113A3.117,3.117,0,0,0-727.21-1201.5Zm14.549-7.274a3.116,3.116,0,0,0,3.112,3.113,3.116,3.116,0,0,0,3.113-3.113,3.116,3.116,0,0,0-3.113-3.113A3.116,3.116,0,0,0-712.661-1208.776Z" transform="translate(729.654 1214.335)"/>
</svg>
