<svg xmlns="http://www.w3.org/2000/svg" width="34.975" height="23.652" viewBox="0 0 34.975 23.652">
  <path id="total_views" d="M-359.692-1128.317a20.009,20.009,0,0,1-7.049-7.767,2.422,2.422,0,0,1,0-2.176,20,20,0,0,1,7.049-7.769A18.963,18.963,0,0,1-349.512-1149a18.957,18.957,0,0,1,10.18,2.97,20,20,0,0,1,7.049,7.767,2.42,2.42,0,0,1,0,2.175,20,20,0,0,1-7.049,7.769,18.955,18.955,0,0,1-10.181,2.971A18.964,18.964,0,0,1-359.692-1128.317Zm-6.159-9.49a1.415,1.415,0,0,0,0,1.269,18.391,18.391,0,0,0,16.338,10.19,18.392,18.392,0,0,0,16.339-10.193,1.413,1.413,0,0,0,0-1.268A18.391,18.391,0,0,0-349.512-1148,18.392,18.392,0,0,0-365.851-1137.807Zm15.85,2.185a5,5,0,0,1,5-5,5,5,0,0,1,5,5,5,5,0,0,1-5,5A5,5,0,0,1-350-1135.622Zm1,0a4,4,0,0,0,4,4,4,4,0,0,0,4-4,4,4,0,0,0-4-4A4,4,0,0,0-349-1135.622Z" transform="translate(367 1149)" fill="#008fcb"/>
</svg>
