<svg xmlns="http://www.w3.org/2000/svg" width="9.862" height="11.386" viewBox="0 0 9.862 11.386">
  <path id="user" d="M4.54,11.086c-1.249,0-2.853-1.147-4.769-3.41L-.36,7.52l.1-.179a4.285,4.285,0,0,1,3.506-1.8.959.959,0,0,1,.279.043,1.574,1.574,0,0,1,.609.475c.105.112.325.346.41.346s.307-.235.413-.348a1.581,1.581,0,0,1,.6-.472l.005,0a.959.959,0,0,1,.279-.043A4.583,4.583,0,0,1,9.406,7.534l.1.18-.131.155C9.091,8.2,6.585,11.086,4.54,11.086ZM.37,7.453c1.687,1.958,3.164,3.033,4.17,3.033,1.374,0,3.24-1.714,4.231-2.842a4.155,4.155,0,0,0-2.933-1.5.358.358,0,0,0-.1.016,1.481,1.481,0,0,0-.347.311,1.294,1.294,0,0,1-.851.537,1.288,1.288,0,0,1-.848-.536,1.435,1.435,0,0,0-.351-.313.352.352,0,0,0-.1-.015A3.929,3.929,0,0,0,.37,7.453Zm4.262,2.73L4.24,9.83c-.6-.548-1.027-.943-1.027-1.5a.908.908,0,0,1,.916-.919.95.95,0,0,1,.5.144.952.952,0,0,1,.5-.144.907.907,0,0,1,.915.919c0,.553-.432.95-1.029,1.5L5,9.854Zm-.5-2.168a.31.31,0,0,0-.316.319c0,.286.325.588.819,1.041.493-.453.818-.755.818-1.041a.31.31,0,0,0-.315-.319.359.359,0,0,0-.274.13l-.23.274L4.4,8.144A.355.355,0,0,0,4.129,8.015Zm.41-2.953A2.681,2.681,0,1,1,7.221,2.381,2.684,2.684,0,0,1,4.54,5.062ZM4.54.3a2.081,2.081,0,1,0,2.081,2.08A2.083,2.083,0,0,0,4.54.3Z" transform="translate(0.36 0.3)" fill="#008fcb"/>
</svg>
