<svg xmlns="http://www.w3.org/2000/svg" width="10.938" height="7.626" viewBox="0 0 10.938 7.626">
  <path id="views" d="M4.969,4a6.023,6.023,0,0,1,5.354,3.333,1.063,1.063,0,0,1,0,.957,6.024,6.024,0,0,1-5.356,3.336A6.023,6.023,0,0,1-.385,8.293a1.063,1.063,0,0,1,0-.957A6.024,6.024,0,0,1,4.969,4Zm0,6.626A5.027,5.027,0,0,0,9.434,7.837a.057.057,0,0,0,0-.05A5.027,5.027,0,0,0,4.969,5,5.027,5.027,0,0,0,.505,7.789a.057.057,0,0,0,0,.05A5.027,5.027,0,0,0,4.969,10.626Z" transform="translate(0.499 -4)" fill="#fd1916"/>
</svg>
