<svg xmlns="http://www.w3.org/2000/svg" width="30.321" height="30.322" viewBox="0 0 30.321 30.322">
  <path id="wifi" d="M15.161,7.833a7.327,7.327,0,1,0,6.856,9.916.505.505,0,1,1,.945.357A8.342,8.342,0,1,1,23.5,15.16a.505.505,0,1,1-1.011,0,7.335,7.335,0,0,0-7.327-7.327ZM3.328,22.917a14.147,14.147,0,0,1,0-15.514A2.968,2.968,0,0,0,7.4,3.326,14.155,14.155,0,0,1,20.986,2.262a.505.505,0,0,0,.416-.921A15.162,15.162,0,0,0,6.733,2.559,2.967,2.967,0,0,0,2.561,6.732a15.154,15.154,0,0,0,0,16.856,2.967,2.967,0,1,0,.767-.671ZM4.866,2.907A1.958,1.958,0,1,1,2.908,4.865,1.96,1.96,0,0,1,4.866,2.907Zm0,24.507a1.958,1.958,0,1,1,1.958-1.958A1.96,1.96,0,0,1,4.866,27.413Zm22.9-20.681A2.967,2.967,0,1,0,27,7.4a14.147,14.147,0,0,1,0,15.514,2.968,2.968,0,0,0-4.076,4.076,14.152,14.152,0,0,1-13.766.979.505.505,0,1,0-.43.915A15.161,15.161,0,0,0,23.59,27.761a2.967,2.967,0,0,0,4.173-4.173,15.154,15.154,0,0,0,0-16.856ZM23.5,4.865a1.958,1.958,0,1,1,1.958,1.958A1.96,1.96,0,0,1,23.5,4.865Zm1.958,22.549a1.958,1.958,0,1,1,1.958-1.958A1.96,1.96,0,0,1,25.457,27.413Z" transform="translate(-0.001 0.001)" fill="#fd1916"/>
</svg>
